<svg width="898" height="501" viewBox="0 0 898 501" fill="none" xmlns="http://www.w3.org/2000/svg">
<path d="M776.538 20.5112V324.928C776.538 333.084 771.853 339.706 766.083 339.706H274.713C268.943 339.706 264.258 333.084 264.258 324.928V20.5112C264.258 12.3555 268.943 5.73367 274.713 5.73367H766.083C771.853 5.73367 776.538 12.3555 776.538 20.5112Z" fill="white"/>
<path d="M776.538 20.5112V324.928C776.538 333.084 771.853 339.706 766.083 339.706H274.713C268.943 339.706 264.258 333.084 264.258 324.928V20.5112C264.258 12.3555 268.943 5.73367 274.713 5.73367H766.083C771.853 5.73367 776.538 12.3555 776.538 20.5112Z" stroke="#0A0A0A" stroke-width="11.012"/>
<path d="M728.925 310.708L641.84 310.416C634.24 310.39 628.041 302.968 628.062 293.923C628.084 284.878 634.318 277.498 641.917 277.524L729.003 277.816C736.602 277.842 742.802 285.264 742.78 294.309C742.759 303.354 736.524 310.734 728.925 310.708Z" fill="#8E9EBF"/>
<path d="M457.208 141.284L327.803 140.486C316.511 140.416 307.274 132.958 307.276 123.913C307.279 114.868 316.519 107.524 327.811 107.594L457.216 108.392C468.508 108.462 477.745 115.919 477.743 124.964C477.74 134.009 468.5 141.354 457.208 141.284Z" fill="#8E9EBF"/>
<path d="M411.964 192.292L324.878 192.24C317.279 192.235 311.065 184.831 311.069 175.786L311.068 175.785C311.072 166.74 317.293 159.344 324.892 159.348L411.978 159.4C419.577 159.404 425.791 166.81 425.787 175.855C425.783 184.9 419.563 192.296 411.964 192.292Z" fill="#8E9EBF"/>
<path d="M409.82 89.3465L322.733 89.4371C315.135 89.445 308.912 82.0509 308.906 73.0053C308.899 63.9603 315.11 56.5529 322.709 56.5451L409.796 56.455C417.395 56.4465 423.617 63.8412 423.624 72.8862C423.63 81.9318 417.419 89.3386 409.82 89.3465Z" fill="#8E9EBF"/>
<path d="M728.899 279.77L641.814 279.288C634.215 279.246 628.027 271.81 628.062 262.765C628.098 253.72 634.344 246.354 641.943 246.396L729.028 246.879C736.627 246.921 742.815 254.357 742.78 263.402C742.744 272.447 736.498 279.813 728.899 279.77Z" fill="#8E9EBF"/>
<path d="M727.145 248.118L640.065 246.903C632.466 246.797 626.322 239.31 626.411 230.265C626.501 221.22 632.79 213.907 640.389 214.014L727.469 215.229C735.067 215.334 741.211 222.822 741.122 231.867C741.033 240.912 734.744 248.225 727.145 248.118Z" fill="#8E9EBF"/>
<path d="M100.25 137.643L115.185 292.113C116.488 305.591 108.29 317.888 96.9663 319.439L96.9658 319.44C85.6422 320.991 75.3112 311.233 74.008 297.754L59.0723 143.285C57.7691 129.806 65.9682 117.508 77.2918 115.957C88.6162 114.406 98.9464 124.165 100.25 137.643Z" fill="#F8E71C"/>
<path d="M102.382 273.855L277.91 395.34C287.764 402.16 291.137 417.339 285.408 429.067C279.678 440.797 266.928 444.812 257.074 437.992L81.5456 316.507C71.692 309.687 68.318 294.51 74.0476 282.781C79.7771 271.052 92.5274 267.036 102.382 273.855Z" fill="#F8E71C"/>
<path d="M231.68 157.646C230.983 165.117 227.513 171.459 222.634 175.376C221.469 176.312 220.233 177.104 218.921 177.742C215.813 179.274 212.361 179.921 208.802 179.448L78.9628 162.333C67.637 160.839 59.3896 148.583 60.6449 135.101C61.3423 127.631 64.805 121.295 69.6914 117.372C73.6205 114.217 78.473 112.633 83.5305 113.293L213.358 130.406C216.923 130.87 220.179 132.415 222.943 134.715C228.944 139.736 232.54 148.4 231.68 157.646Z" fill="#F8E71C"/>
<path d="M327.942 177.804C327.715 179.684 326.246 180.996 324.655 180.724L278.299 172.769C276.687 176.267 273.355 178.394 269.858 177.793L251.395 174.623L251.273 175.616C251.179 176.402 251.034 177.158 250.821 177.892C251.337 178.386 251.792 178.971 252.185 179.604C253.538 181.754 254.2 184.509 253.854 187.367C253.79 187.888 253.701 188.385 253.577 188.859L277.695 206.288C277.921 206.053 278.191 205.875 278.501 205.748L292.657 199.97C294.16 199.351 295.814 200.309 296.339 202.106C296.851 203.902 296.047 205.872 294.539 206.481L281.284 211.908C281.22 212.094 281.156 212.278 281.059 212.464C280.288 213.977 278.636 214.45 277.368 213.541L250.516 194.14C248.7 195.811 246.33 196.643 243.891 196.223C241.495 195.821 239.453 194.279 238.113 192.132C237.041 190.438 236.407 188.368 236.358 186.162C234.311 185.265 232.566 183.671 231.305 181.663C230.389 180.206 229.723 178.535 229.366 176.736C229.176 176.915 228.967 177.083 228.759 177.25C224.83 180.405 219.976 181.987 214.927 181.323C211.361 180.857 208.105 179.313 205.347 177.022C199.346 172.002 195.75 163.337 196.61 154.092C197.307 146.621 200.77 140.285 205.648 136.368C206.814 135.432 208.057 134.633 209.369 133.995C212.476 132.462 215.934 131.826 219.487 132.288C225.764 133.118 231.092 137.249 234.382 143.055C234.44 143.157 234.497 143.257 234.547 143.365C236.952 140.178 240.612 138.43 244.421 139.087C247.455 139.606 250.039 141.568 251.761 144.291C253.47 147.008 254.312 150.516 253.877 154.129L253.754 155.122L272.218 158.292C274.477 158.671 276.392 160.128 277.659 162.146C278.362 163.267 278.86 164.563 279.13 165.951L325.481 173.898C327.065 174.176 328.173 175.933 327.942 177.804Z" fill="#09076B"/>
<path d="M736.221 182.586L801.187 411.565C804.834 424.42 798.981 438.49 788.181 442.831C777.382 447.171 765.563 440.208 761.915 427.352L696.949 198.373C693.302 185.519 699.155 171.449 709.955 167.107C720.754 162.766 732.574 169.732 736.221 182.586Z" fill="#F8E71C"/>
<path d="M706.622 216.394L593.354 138.938C583.471 132.179 580.03 117.023 585.708 105.259C591.386 93.4944 604.118 89.3983 614.002 96.1571L727.27 173.613C737.153 180.371 740.594 195.528 734.917 207.292C729.238 219.057 716.506 223.153 706.622 216.394Z" fill="#F8E71C"/>
<path d="M476.265 158.49L596.509 97.7357C607.003 92.4349 619.231 98.3159 623.686 110.804L623.685 110.805C628.138 123.294 623.198 137.85 612.706 143.152L492.461 203.906C481.969 209.207 469.74 203.325 465.286 190.837L465.286 190.836C460.832 178.348 465.773 163.792 476.265 158.49Z" fill="#F8E71C"/>
<path d="M487.829 156.362L488.984 156.673C500.631 159.818 507.998 173.734 505.355 187.596L505.093 188.972C502.452 202.833 490.762 211.602 479.115 208.457L477.96 208.146C466.313 205.001 458.947 191.086 461.588 177.224L461.85 175.849C464.492 161.986 476.183 153.216 487.829 156.362Z" fill="#09076B"/>
<path d="M882.983 482.077H164.479C156.219 482.077 149.461 474.032 149.461 464.201C149.461 454.369 156.219 446.325 164.479 446.325H882.983C891.243 446.325 898 454.369 898 464.201C898 474.032 891.243 482.077 882.983 482.077Z" fill="#09076B"/>
<path d="M802.687 446.326H244.775C236.515 446.326 229.757 438.28 229.757 428.45V428.447C229.757 418.617 236.515 410.571 244.775 410.571H802.687C810.946 410.571 817.705 418.617 817.705 428.447V428.45C817.705 438.28 810.946 446.326 802.687 446.326Z" fill="#0A0A0A"/>
<path d="M414.789 213.689L473.163 190.575C476.042 189.436 479.184 191.308 480.14 194.736L480.235 195.076C481.194 198.503 479.62 202.24 476.741 203.38L418.367 226.492C415.487 227.632 412.348 225.761 411.39 222.334L411.295 221.994C410.338 218.566 411.909 214.828 414.789 213.689Z" fill="#09076B"/>
<path d="M421.738 128.466L476.298 162.295C478.99 163.963 480.044 167.949 478.642 171.153L478.505 171.471C477.103 174.674 473.753 175.931 471.063 174.262L416.5 140.435C413.809 138.764 412.754 134.778 414.155 131.575L414.296 131.257C415.697 128.053 419.047 126.797 421.738 128.466Z" fill="#09076B"/>
<path d="M382.816 148.915L416.238 128.602C418.941 126.959 422.281 128.248 423.661 131.464L423.798 131.785C425.179 135.001 424.096 138.978 421.393 140.62L387.971 160.934C385.269 162.577 381.927 161.289 380.547 158.071L380.411 157.752C379.031 154.535 380.113 150.558 382.816 148.915Z" fill="#09076B"/>
<path d="M388.264 191.901L419.512 213.741C422.129 215.57 423.012 219.615 421.477 222.73C419.94 225.845 416.542 226.897 413.925 225.068L382.677 203.228C380.059 201.399 379.176 197.353 380.712 194.24C382.248 191.124 385.647 190.073 388.264 191.901Z" fill="#09076B"/>
<path d="M292.857 204.611L302.296 205.07L302.524 194.473L309.728 198.37L309.695 186.829L317.555 190.794L317.883 180.339L325.028 177.543" stroke="#8E9EBF" stroke-width="3" stroke-linecap="round" stroke-linejoin="round"/>
<path d="M331.736 176.235C331.107 179.758 328.232 182.019 325.319 181.282C322.406 180.545 320.552 177.087 321.181 173.565C321.81 170.042 324.686 167.781 327.598 168.518C330.511 169.255 332.365 172.713 331.736 176.235Z" fill="white"/>
<path d="M325.229 179.121C325.229 179.121 307.673 207.236 294.741 227.943Z" fill="url(#paint0_radial_147_5362)"/>
<path d="M325.229 179.121C325.229 179.121 307.673 207.236 294.741 227.943" stroke="white" stroke-width="6"/>
<path d="M324.21 171.499L295.609 110.441C295.609 110.441 300.736 121.387 306.649 134.009" fill="url(#paint1_radial_147_5362)"/>
<path d="M324.21 171.499L295.609 110.441C295.609 110.441 300.736 121.387 306.649 134.009" stroke="white" stroke-width="6"/>
<path d="M331.03 165.292C331.03 165.292 338.596 155.902 344.167 148.986Z" fill="url(#paint2_radial_147_5362)"/>
<path d="M331.03 165.292C331.03 165.292 338.596 155.902 344.167 148.986" stroke="white" stroke-width="6"/>
<path d="M332.185 177.482C332.185 177.482 344.945 180.484 354.343 182.695Z" fill="url(#paint3_radial_147_5362)"/>
<path d="M332.185 177.482C332.185 177.482 344.945 180.484 354.343 182.695" stroke="white" stroke-width="6"/>
<path d="M317.584 176.62C317.584 176.62 306.971 177.553 299.153 178.239Z" fill="url(#paint4_radial_147_5362)"/>
<path d="M317.584 176.62C317.584 176.62 306.971 177.553 299.153 178.239" stroke="white" stroke-width="6"/>
<path d="M327.158 186.974C327.158 186.974 331.301 198.875 334.353 207.64Z" fill="url(#paint5_radial_147_5362)"/>
<path d="M327.158 186.974C327.158 186.974 331.301 198.875 334.353 207.64" stroke="white" stroke-width="6"/>
<path d="M325.759 162.826C325.759 162.826 325.889 153.589 325.985 146.785Z" fill="url(#paint6_radial_147_5362)"/>
<path d="M325.759 162.826C325.759 162.826 325.889 153.589 325.985 146.785" stroke="white" stroke-width="6"/>
<defs>
<radialGradient id="paint0_radial_147_5362" cx="0" cy="0" r="1" gradientUnits="userSpaceOnUse" gradientTransform="translate(-88.3899 800.207) rotate(100.125) scale(110.124 93.7094)">
<stop stop-color="white"/>
<stop offset="1"/>
</radialGradient>
<radialGradient id="paint1_radial_147_5362" cx="0" cy="0" r="1" gradientUnits="userSpaceOnUse" gradientTransform="translate(-88.3904 800.207) rotate(100.125) scale(110.124 93.7094)">
<stop stop-color="white"/>
<stop offset="1"/>
</radialGradient>
<radialGradient id="paint2_radial_147_5362" cx="0" cy="0" r="1" gradientUnits="userSpaceOnUse" gradientTransform="translate(-88.3901 800.207) rotate(100.125) scale(110.124 93.7094)">
<stop stop-color="white"/>
<stop offset="1"/>
</radialGradient>
<radialGradient id="paint3_radial_147_5362" cx="0" cy="0" r="1" gradientUnits="userSpaceOnUse" gradientTransform="translate(-88.39 800.207) rotate(100.125) scale(110.124 93.7094)">
<stop stop-color="white"/>
<stop offset="1"/>
</radialGradient>
<radialGradient id="paint4_radial_147_5362" cx="0" cy="0" r="1" gradientUnits="userSpaceOnUse" gradientTransform="translate(-88.3905 800.207) rotate(100.125) scale(110.124 93.7094)">
<stop stop-color="white"/>
<stop offset="1"/>
</radialGradient>
<radialGradient id="paint5_radial_147_5362" cx="0" cy="0" r="1" gradientUnits="userSpaceOnUse" gradientTransform="translate(-88.3902 800.207) rotate(100.125) scale(110.124 93.7094)">
<stop stop-color="white"/>
<stop offset="1"/>
</radialGradient>
<radialGradient id="paint6_radial_147_5362" cx="0" cy="0" r="1" gradientUnits="userSpaceOnUse" gradientTransform="translate(-88.3901 800.207) rotate(100.125) scale(110.124 93.7094)">
<stop stop-color="white"/>
<stop offset="1"/>
</radialGradient>
</defs>
</svg>
