<svg width="650" height="564" viewBox="0 0 650 564" fill="none" xmlns="http://www.w3.org/2000/svg">
<path d="M281.348 294.762L380.336 181.619" stroke="#56AAFF" stroke-width="37.5676" stroke-miterlimit="10" stroke-linecap="round"/>
<path d="M212.056 226.644L281.396 294.756" stroke="#56AAFF" stroke-width="50.0907" stroke-miterlimit="10" stroke-linecap="round"/>
<path d="M343.76 398.7C343.76 368.646 368.706 343.6 398.639 343.6C428.573 343.6 453.519 368.646 453.519 398.7C453.519 432.511 436.056 465.071 407.37 483.856L343.76 526.432V545.217H456.013" stroke="#0478ED" stroke-width="37.5676" stroke-miterlimit="10" stroke-linecap="square"/>
<path d="M649.339 457.557H518.377V326.069" stroke="#0478ED" stroke-width="37.5676" stroke-miterlimit="10"/>
<path d="M605.685 338.591V564" stroke="#0478ED" stroke-width="37.5676" stroke-miterlimit="10"/>
<path d="M281.398 538.954C140.458 538.954 25.7097 423.745 25.7097 282.238C25.7097 140.732 140.458 25.5232 281.398 25.5232C384.921 25.5232 474.723 88.1371 514.635 177.048" stroke="#D9DCE1" stroke-width="50.0907" stroke-miterlimit="10"/>
<path d="M433.564 174.543L537.086 282.238L578.247 138.228L433.564 174.543Z" fill="#D9DCE1"/>
<path d="M275.162 100.658V13" stroke="#D9DCE1" stroke-width="25.0463" stroke-miterlimit="10"/>
<path d="M275.162 564V476.342" stroke="#D9DCE1" stroke-width="25.0463" stroke-miterlimit="10"/>
<path d="M106.781 282.238H7" stroke="#D9DCE1" stroke-width="25.0463" stroke-miterlimit="10"/>
</svg>
