<svg width="605" height="673" viewBox="0 0 605 673" fill="none" xmlns="http://www.w3.org/2000/svg">
<path d="M225.684 298.984C218.19 306.2 215.332 317.433 222.483 326.103C229.214 334.262 242.237 335.993 250.646 329.489C270.939 313.785 249.788 284.809 227.888 290.806C223.833 291.916 224.84 297.712 228.847 297.941C235.253 298.309 242.108 298.549 247.221 303.049C252.717 307.879 252.836 316.056 248.328 321.613C236.393 336.328 215.662 314.66 228.198 301.504C229.782 299.844 227.339 297.391 225.684 298.984Z" fill="#8AA9FC"/>
<path d="M434.71 323.837C437.458 334.066 440.487 344.185 443.63 354.299C444.389 356.733 446.683 357.494 448.768 356.073C456.968 350.488 465.177 344.998 472.943 338.814C474.441 337.624 474.107 335.228 472.633 334.214C463.536 327.954 451.248 318.715 439.704 318.648C436.766 318.634 434.72 322.775 437.696 324.497C442.357 327.189 447.938 328.145 452.913 330.221C458.657 332.612 464.343 335.424 469.413 339.054C469.528 337.375 469.638 335.696 469.752 334.018C461.07 339.379 452.894 345.385 444.637 351.372C446.263 351.698 447.885 352.028 449.512 352.353C445.992 342.363 442.371 332.44 438.464 322.593C437.639 320.518 434.123 321.656 434.71 323.837Z" fill="#F5A623"/>
<path d="M492.291 378.028C504.479 372.175 516.958 365.442 527.944 357.541C531.98 354.639 528.006 348.977 523.751 351.21C512.007 357.374 500.563 365.341 490.087 373.466C487.984 375.097 489.529 379.353 492.291 378.028Z" fill="#EDC483"/>
<path d="M43.1708 415.377C40.6235 402.073 37.3034 388.262 32.4712 375.604C30.6967 370.951 24.2235 373.366 25.2968 378.057C28.2591 391.012 33.0341 404.134 38.2098 416.357C39.2497 418.811 43.748 418.39 43.1708 415.377Z" fill="#E8947E"/>
<path d="M81.5424 297.578C81.3134 297.377 81.0892 297.171 80.8603 296.97C77.8407 294.292 72.8844 293.762 69.946 296.97C66.9789 300.213 67.0839 304.665 69.946 307.907C70.1511 308.137 70.3562 308.366 70.5566 308.596C73.2565 311.656 78.8234 311.566 81.5424 308.596C84.2471 305.64 84.7957 300.461 81.5424 297.578Z" fill="#251A51"/>
<path d="M120.901 406.21C121.517 402.106 121.402 398.209 123.692 394.594C128.252 387.396 134.73 389.199 141.003 392.37C147.395 395.598 153.41 397.53 160.361 394.517C171.213 389.807 176.307 373.399 165.951 365.681C162.598 363.18 159.297 367.307 159.745 370.468C160.375 374.882 162.56 379.74 158.786 383.532C153.744 388.606 147.824 384.345 142.792 382.069C137.354 379.611 131.582 379.071 125.972 381.342C116.312 385.259 109.31 398.381 116.976 407.247C118.058 408.495 120.644 407.936 120.901 406.21Z" fill="#6E3281"/>
<path d="M263.488 414.143C276.525 410.58 290.01 406.205 302.232 400.409C306.72 398.281 303.825 391.997 299.241 393.427C286.58 397.377 273.901 403.154 262.138 409.261C259.777 410.485 260.535 414.951 263.488 414.143Z" fill="#EDC483"/>
<path d="M198.794 427.748C201.542 437.978 204.571 448.097 207.714 458.211C208.473 460.645 210.767 461.41 212.852 459.99C221.052 454.404 229.257 448.91 237.027 442.726C238.521 441.535 238.191 439.14 236.717 438.126C227.621 431.866 215.333 422.627 203.789 422.56C200.85 422.545 198.804 426.687 201.78 428.408C206.441 431.101 212.022 432.057 216.997 434.133C222.741 436.524 228.427 439.336 233.497 442.965C233.612 441.287 233.722 439.608 233.836 437.93C225.154 443.29 216.978 449.297 208.721 455.284C210.348 455.609 211.97 455.939 213.596 456.265C210.076 446.275 206.455 436.352 202.548 426.505C201.723 424.425 198.207 425.568 198.794 427.748Z" fill="#EDE6F5"/>
<path d="M216.725 530.149C230.197 531.153 244.359 531.55 257.811 530.221C262.753 529.733 262.147 522.971 257.349 522.784C244.102 522.263 230.22 523.425 217.093 525.195C214.46 525.549 213.673 529.919 216.725 530.149Z" fill="#6E3281"/>
<path d="M403.747 279.032C404.582 267.496 405.413 255.961 406.248 244.425C415.289 241.87 419.994 230.269 416.385 221.572C412.776 212.875 402.524 207.99 393.222 209.323C399.092 205.316 402.484 201.525 397.665 196.295C392.846 191.066 385.297 189.37 378.199 189.095C371.101 188.821 363.923 189.684 356.939 188.382C350.755 187.231 344.691 184.392 338.449 185.181C332.208 185.969 326.24 193.01 329.606 198.341C320.604 197.017 315.666 191.96 307.666 196.313C299.667 200.666 295.652 213.052 302.525 219.03C297.984 221.35 296.849 227.939 299.402 232.363C301.955 236.787 307.185 239.107 312.269 239.475C317.353 239.842 322.393 238.549 327.327 237.27" fill="#251A51"/>
<path d="M402.783 628.647C402.783 628.647 284.122 656.314 236.457 608.534L253.515 494.402C258.697 461.598 255.609 398.474 280.672 376.081C285.522 371.746 290.186 369.589 290.186 369.589C307.767 361.078 339.044 356.482 369.072 356.367C405.548 356.225 443.094 383.879 452.675 419.167L413.194 511.752L402.783 628.647Z" fill="#F5A623"/>
<path d="M343.461 472.492C359.593 471.588 375.521 472.297 391.639 472.509C393.043 472.527 392.964 470.53 391.639 470.37C375.759 468.466 359.359 469.228 343.461 470.596C342.264 470.698 342.233 472.558 343.461 472.492Z" fill="#1A3066"/>
<path d="M415.712 381.771C361.218 386.704 398.485 467.257 412.452 491.648C413.23 493.007 415.319 491.785 414.551 490.417C400.667 465.778 363.515 390.818 415.889 383.104C416.635 382.993 416.472 381.7 415.712 381.771Z" fill="#1A3066"/>
<path d="M264.673 427.824C257.964 454.65 253.458 482.548 251.797 510.171C251.727 511.313 253.652 511.606 253.816 510.445C257.716 482.982 261.634 455.589 266.029 428.196C266.171 427.32 264.898 426.925 264.673 427.824Z" fill="#1A3066"/>
<path d="M388.939 300.468L375.821 370.606C372.866 386.406 357.322 396.52 341.725 392.787C327.268 389.329 318.009 375.172 320.607 360.501L327.727 320.302L388.939 300.468Z" fill="#F6AEA6"/>
<path d="M402.276 256.594L400.461 280.573C400.461 280.573 420.797 283.323 415.002 301.917C409.207 320.511 395.293 312.376 395.293 312.376C395.293 312.376 391.817 360.028 343.127 344.919C304.375 332.896 306.743 282.588 311.664 239.701C313.572 223.086 329.244 211.666 345.618 214.863L374.89 220.58C391.812 223.883 403.584 239.364 402.276 256.594Z" fill="#F6AEA6"/>
<path d="M406.071 292.046C405.09 294.265 404.11 296.479 403.129 298.697C403.88 297.444 406.005 297.639 406.782 298.874C407.559 300.11 407.104 301.85 406.04 302.847C404.975 303.843 403.451 304.215 401.994 304.246" stroke="#251A51" stroke-width="0.221409" stroke-miterlimit="10"/>
<path d="M282.51 574.227C282.51 574.227 219.508 585.284 220.741 593.476C221.973 601.668 226.399 609.931 226.399 609.931L282.51 608.607V574.227Z" fill="#F6AEA6"/>
<path d="M392.973 433.388C392.973 433.388 446.124 536.034 419.732 541.498C332.905 559.481 282.51 574.227 282.51 574.227L278.084 608.032C279.378 613.142 453.748 608.718 474.403 585.235C488.984 568.652 508.366 530.33 467.128 447.386L454.596 419.169L392.973 433.388Z" fill="#F6AEA6"/>
<path d="M117.704 407.388C117.704 407.388 115.972 370.763 122.934 369.674C129.895 368.586 143.571 365.263 143.571 365.263C143.571 365.263 137.591 331.355 142.547 335.894C147.503 340.434 158.288 385.471 148.143 410.355L117.704 407.388Z" fill="#F6AEA6"/>
<path d="M281.174 375.405L170.984 465.337L145.627 400.462L115.274 398.82C115.274 398.82 110.522 517.774 165.837 521.585C221.151 525.396 264.447 470.881 264.447 470.881L281.174 375.405Z" fill="#F6AEA6"/>
<path d="M307.607 363.452C261.395 378.211 246.319 415.722 181.268 442.925L210.828 516.641L265.529 478.855L307.607 363.452Z" fill="#F5A623"/>
<path d="M383.089 419.167L416.668 497.387L492.404 483.526L441.381 395.432L380.973 419.167" fill="#F5A623"/>
<path d="M348.965 611.917L348.484 603.171L218.731 595.214L175.214 478.522L32.8013 486.373L81.3852 612.564L348.965 611.917Z" fill="#9B9B9B"/>
<path d="M111.32 541.938C111.638 547.775 116.62 552.243 122.442 551.924C128.264 551.601 132.725 546.61 132.403 540.774C132.085 534.937 127.107 530.469 121.285 530.788C115.463 531.111 111.002 536.102 111.32 541.938Z" fill="white" fill-opacity="0.41"/>
<path d="M107.102 542.169C107.548 550.343 114.522 556.605 122.676 556.153C130.83 555.706 137.076 548.718 136.626 540.543C136.175 532.369 129.205 526.103 121.051 526.555C112.897 527.002 106.651 533.994 107.102 542.169Z" fill="white" fill-opacity="0.41"/>
<path d="M343.494 258.56C342.774 270.056 342.058 281.556 341.338 293.056C341.179 295.62 341.06 298.405 342.054 300.562C343.047 302.718 345.64 303.453 346.603 301.266" stroke="#251A51" stroke-width="2.21409" stroke-miterlimit="10"/>
<path d="M370.442 337.152C363.653 341.868 355.362 344.37 347.107 344.197C338.851 344.024 330.666 341.173 324.085 336.173" stroke="#251A51" stroke-width="0.221409" stroke-miterlimit="10"/>
<path d="M360.124 304.724C359.748 309.13 356.542 313.164 352.341 314.519C348.14 315.874 343.189 314.466 340.322 311.105" stroke="#251A51" stroke-width="4.42819" stroke-miterlimit="10"/>
<path d="M371.158 259.04C368.605 256.613 364.784 255.608 361.374 256.463" stroke="#251A51" stroke-width="2.21409" stroke-miterlimit="10"/>
<path d="M330.406 250.75C327.084 248.806 322.888 248.439 319.279 249.776" stroke="#251A51" stroke-width="2.21409" stroke-miterlimit="10"/>
<path d="M400.461 280.573C386.87 267.293 382.876 245.161 379.188 226.496C366.604 235.684 349.293 237.943 334.778 232.292C330.224 237.659 324.871 242.349 318.956 246.152C317.273 247.233 315.281 248.282 313.369 247.702C311.089 247.011 310.073 244.39 309.53 242.065C307.794 234.621 307.728 226.655 310.316 219.464C312.905 212.272 318.338 205.958 325.45 203.199C333.051 200.25 341.607 201.534 349.496 203.584C361.383 206.675 372.841 211.422 383.437 217.644C393.835 223.75 403.827 231.832 408.24 243.075C412.652 254.318 412.63 276.171 401.994 281.857" fill="#251A51"/>
<path d="M368.697 273.579C368.52 276.032 368.347 278.49 368.17 280.943" stroke="#251A51" stroke-width="4.42816" stroke-miterlimit="10"/>
<path d="M329.605 268.577C329.427 271.03 329.255 273.488 329.078 275.941" stroke="#251A51" stroke-width="4.42816" stroke-miterlimit="10"/>
<path d="M338.51 51.6097C338.51 51.6097 309.177 53.0812 308.197 84.453C308.197 84.453 308.684 101.604 317.974 107.979C327.264 114.349 326.777 121.213 326.777 121.213H351.223C351.223 121.213 350.248 112.393 354.159 107.49C358.07 102.586 367.852 92.2948 366.384 77.1002C364.917 61.9055 353.667 50.1382 338.51 51.6097Z" fill="#FFBB7D"/>
<path d="M326.307 128.91C335.087 128.502 343.966 129.471 352.682 128.959C353.942 128.887 354.371 126.922 352.998 126.637C344.526 124.88 334.834 125.853 326.307 126.813C325.002 126.963 324.934 128.973 326.307 128.91Z" fill="#6338A1"/>
<path d="M329.721 136.598C333.221 136.394 336.739 136.249 340.244 136.285C343.731 136.321 347.303 136.901 350.767 136.647C352.041 136.552 352.429 134.678 351.079 134.325C344.377 132.568 336.22 133.578 329.446 134.537C328.28 134.7 328.551 136.665 329.721 136.598Z" fill="#6338A1"/>
<path d="M332.603 142.293C335.665 142.506 338.835 143.375 341.888 143.307C343.401 143.276 343.676 141.134 342.24 140.682C339.273 139.744 335.678 140.075 332.603 140.197C331.248 140.251 331.266 142.203 332.603 142.293Z" fill="#6338A1"/>
<path d="M333.994 120.873C334.671 112.153 331.74 102.505 330.254 93.9474C329.405 94.3051 328.552 94.6718 327.698 95.0295C328.926 97.0534 330.972 102.894 334.111 102.686C337.354 102.468 338.56 96.673 339.016 94.3096C338.081 94.3096 337.151 94.3096 336.216 94.3096C336.843 96.999 336.92 103.492 341.138 102.88C344.711 102.36 347.123 97.0488 348.216 94.133C347.245 93.8659 346.274 93.5943 345.302 93.3271C343.144 101.857 342.109 112.656 344.273 121.253C344.661 122.797 347.104 122.489 347.059 120.873C346.797 111.836 345.537 102.994 348.216 94.133C348.789 92.2314 345.998 91.5568 345.302 93.3271C344.91 94.3323 342.602 100.06 340.416 99.3217C339.865 99.1361 339.138 94.0334 339.016 93.5354C338.691 92.1998 336.473 92.0956 336.216 93.5354C335.9 95.2876 335.172 100.06 333.108 98.6335C331.916 97.8095 330.864 94.8756 330.114 93.6169C329.252 92.1726 327.319 93.1913 327.558 94.6945C328.908 103.256 329.279 113.221 332.707 121.226C333.005 121.919 333.949 121.475 333.994 120.873Z" fill="#6338A1"/>
<path d="M247.349 108.965C260.441 104.764 273.534 100.562 286.627 96.3606" stroke="#FFBB7D" stroke-width="2.26381" stroke-miterlimit="10"/>
<path d="M263.657 69.8967C271.958 69.6794 280.254 69.4575 288.555 69.2402" stroke="#FFBB7D" stroke-width="2.26381" stroke-miterlimit="10"/>
<path d="M302.231 57.6133C292.706 49.6266 283.176 41.6444 273.651 33.6577" stroke="#FFBB7D" stroke-width="2.26381" stroke-miterlimit="10"/>
<path d="M323.29 44.3655C320.449 39.7654 317.613 35.1699 314.772 30.5699" stroke="#FFBB7D" stroke-width="2.26381" stroke-miterlimit="10"/>
<path d="M342.116 39.0999C341.858 26.3999 341.6 13.7 341.342 1" stroke="#FFBB7D" stroke-width="2.26381" stroke-miterlimit="10"/>
<path d="M356.977 44.5239C359.791 39.693 362.609 34.8575 365.423 30.0265" stroke="#FFBB7D" stroke-width="2.26381" stroke-miterlimit="10"/>
<path d="M368.941 54.4847C380.475 48.0147 392.015 41.5448 403.549 35.0748" stroke="#FFBB7D" stroke-width="2.26381" stroke-miterlimit="10"/>
<path d="M377.684 70.594C382.684 71.0332 387.801 69.9918 392.236 67.6284" stroke="#FFBB7D" stroke-width="2.26381" stroke-miterlimit="10"/>
<path d="M379.64 92.9966C397.371 96.7455 415.111 100.499 432.842 104.248" stroke="#FFBB7D" stroke-width="2.26381" stroke-miterlimit="10"/>
<g opacity="0.999993">
<path d="M447.038 187.045C445.307 190.412 450.968 277.392 450.968 277.392L493.69 273.834L488.709 296.798L509.585 273.198L551.391 268.354L548.848 184.046L447.038 187.045Z" fill="#DDD2F3"/>
</g>
<path d="M470.416 225.957L479.399 257.263L491.967 254.81L490.744 248.508L494.311 246.358L501.046 253.033L522.339 248.876L525.099 240.706L519.039 239.347L526.867 236.73L525.162 227.979L518.396 228.574L527.687 226.034L525.575 215.184L503.933 219.414C503.933 219.414 505.333 204.243 498.938 199.317L494.052 200.272C494.052 200.272 495.702 205.038 495.548 207.973C495.394 210.908 491.138 224.453 491.138 224.453L484.498 227.566L482.916 223.154L470.416 225.957Z" fill="white"/>
<path d="M0 610.862L571.502 603.71L604.973 621.331C604.973 621.331 166.246 742.048 0 610.862Z" fill="#DDD2F3"/>
</svg>
