<svg width="585" height="595" viewBox="0 0 585 595" fill="none" xmlns="http://www.w3.org/2000/svg">
<path d="M476.368 220.515H476.367C448.539 234.103 415.008 222.47 401.474 194.53C387.94 166.591 399.527 132.923 427.354 119.335C455.182 105.746 488.715 117.38 502.249 145.319C515.783 173.259 504.196 206.926 476.368 220.515Z" fill="#FF605D"/>
<path d="M438.014 182.499C438.958 182.44 439.513 181.785 439.319 180.798C439.182 180.115 438.817 178.402 438.676 177.684C438.487 176.704 438.251 176.446 437.25 176.003C435.073 175.038 433.16 173.347 431.704 170.34C427.478 161.619 430.195 150.639 440.621 145.548C449.851 141.041 457.666 144.227 461.33 151.791C466.15 161.74 465.832 172.28 459.321 175.46C455.724 177.216 451.587 175.546 450.674 171.464C449.591 166.586 449.306 160.89 447.777 157.733C446.409 154.909 443.757 153.29 440.632 154.816C436.954 156.612 435.851 161.872 438.329 166.987C439.906 170.243 442.071 171.913 442.071 171.913C442.071 171.913 446.062 189.753 446.76 192.877C448.149 199.099 452.58 205.399 453.01 206.043C453.267 206.426 453.835 206.266 453.923 205.842C454.047 205.232 455.797 197.666 454.657 191.517C454.335 189.775 452.482 180.85 452.482 180.85C454.783 182.555 459.249 182.864 462.96 181.051C474.012 175.654 476.608 161.88 470.05 148.342C465.09 138.104 451.838 132.789 438.712 139.198C422.38 147.173 419.84 162.951 424.588 172.753C427.463 178.69 432.261 182.877 438.014 182.499Z" fill="white"/>
<path d="M116.68 141.899C90.5869 141.899 69.4351 120.662 69.4351 94.4648C69.4351 68.267 90.5869 47.0303 116.68 47.0303C142.773 47.0303 163.925 68.267 163.925 94.4648C163.925 120.662 142.773 141.899 116.68 141.899Z" fill="#EBEBEB"/>
<path d="M95.2577 115.606H105.035V83.8906H95.2577V115.606Z" fill="white"/>
<path d="M100.099 79.7382C103.293 79.7382 105.882 77.1158 105.882 73.8842C105.882 70.6526 103.293 68.033 100.099 68.033C96.9056 68.033 94.3171 70.6526 94.3171 73.8842C94.3171 77.1158 96.9056 79.7382 100.099 79.7382Z" fill="white"/>
<path d="M120.665 98.9576C120.665 94.4993 122.709 91.8423 126.623 91.8423C130.218 91.8423 131.946 94.3927 131.946 98.9576C131.946 103.525 131.946 115.606 131.946 115.606H141.678C141.678 115.606 141.678 104.021 141.678 95.5253C141.678 87.0308 136.881 82.9214 130.185 82.9214C123.484 82.9214 120.665 88.162 120.665 88.162V83.8906H111.286V115.606H120.665C120.665 115.606 120.665 103.844 120.665 98.9576Z" fill="white"/>
<path d="M373.573 594.033L183.42 593.919C160.551 593.908 142.02 575.287 142.024 552.325L142.118 73.6945C142.122 50.7201 160.68 32.1016 183.562 32.114L373.716 32.2262C396.585 32.24 415.117 50.8613 415.111 73.8219L415.019 552.455C415.015 575.428 396.457 594.048 373.573 594.033Z" fill="#253138"/>
<path d="M373.514 49.1569L336.646 49.1348C331.702 49.132 327.692 53.3384 327.692 58.5264L327.688 65.2403C327.689 70.4297 323.679 74.6347 318.735 74.6306L246.873 74.589C241.929 74.5862 237.923 70.3771 237.924 65.1877V58.4738C237.926 53.283 233.917 49.0739 228.973 49.0711L216.008 49.0642L183.74 49.0448C167.716 49.0365 154.718 62.0751 154.715 78.1654L154.623 545.344C154.619 561.426 167.6 574.466 183.616 574.477L373.387 574.588C389.411 574.598 402.41 561.559 402.414 545.469L402.504 78.2886C402.507 62.2067 389.53 49.1666 373.514 49.1569Z" fill="white"/>
<path d="M376.291 87.1084C376.291 87.2344 371.496 87.377 365.583 87.4255C359.668 87.4753 354.873 87.413 354.872 87.287C354.872 87.1624 359.664 87.0212 365.579 86.9713C371.493 86.9229 376.29 86.9838 376.291 87.1084Z" fill="#253138"/>
<path d="M376.335 92.6122C376.336 92.7368 371.54 92.8781 365.627 92.9279C359.711 92.9764 354.917 92.9155 354.916 92.7895C354.914 92.6648 359.706 92.5236 365.623 92.4738C371.536 92.4253 376.334 92.4862 376.335 92.6122Z" fill="#253138"/>
<path d="M376.382 98.1132C376.383 98.2378 371.587 98.3804 365.672 98.4303C359.758 98.4801 354.963 98.4178 354.963 98.2918C354.961 98.1672 359.753 98.026 365.67 97.9761C371.583 97.9276 376.381 97.9886 376.382 98.1132Z" fill="#253138"/>
<path d="M174.643 103.48C174.654 103.469 174.845 103.458 175.204 103.444C175.647 103.428 176.16 103.412 176.765 103.391C178.238 103.356 180.166 103.309 182.529 103.254L182.369 103.415C182.349 102.133 182.325 100.731 182.302 99.2193C182.31 98.4384 182.234 97.7046 182.31 96.8032C182.466 95.9046 183.264 95.1127 184.245 95.0199C185.174 95.0005 185.991 94.959 186.997 95.006C188.036 95.1334 188.921 96.1373 188.89 97.2422C188.912 99.1986 188.935 101.241 188.959 103.361L188.691 103.098C191.026 103.074 193.457 103.048 195.961 103.023L195.685 103.307C195.659 100.366 195.632 97.3238 195.604 94.2085C195.597 93.4318 195.59 92.6606 195.583 91.8921C195.581 91.1791 195.148 90.7014 194.562 90.1683C193.486 89.1036 192.427 88.054 191.384 87.0225C190.343 85.991 189.318 84.9775 188.317 83.9847C187.817 83.4891 187.32 82.9975 186.831 82.5102C186.32 82.0172 185.919 81.5077 185.327 81.3859C184.754 81.2308 184.122 81.3513 183.66 81.7043C183.22 82.0768 182.75 82.6071 182.307 83.0405C181.412 83.9474 180.541 84.8293 179.698 85.6836C178.057 87.395 176.347 88.9568 175.103 90.4355C174.581 91.2511 174.776 92.2507 174.738 93.1604C174.736 94.0645 174.735 94.923 174.734 95.733C174.725 97.3086 174.714 98.6918 174.707 99.8756C174.695 100.935 174.687 101.809 174.678 102.526C174.669 103.138 174.656 103.466 174.643 103.48C174.629 103.494 174.615 103.193 174.594 102.603C174.575 101.897 174.549 101.036 174.52 99.9947C174.494 98.8012 174.463 97.4069 174.427 95.8174C174.412 94.9922 174.394 94.1158 174.378 93.1936C174.371 92.727 174.364 92.248 174.357 91.7592C174.353 91.24 174.485 90.7055 174.758 90.2306C176.103 88.576 177.708 87.1111 179.362 85.3499C180.199 84.4901 181.062 83.6012 181.95 82.6874C182.416 82.2277 182.798 81.7708 183.353 81.2917C183.935 80.8431 184.733 80.6811 185.461 80.875C186.235 81.0453 186.737 81.6822 187.206 82.128C187.698 82.6126 188.196 83.1014 188.698 83.5957C189.703 84.5857 190.731 85.5964 191.773 86.6251C192.818 87.6539 193.882 88.6993 194.96 89.7626C195.215 90.034 195.521 90.2638 195.771 90.6446C196.005 91.0087 196.141 91.4407 196.152 91.8783C196.159 92.6481 196.165 93.4248 196.172 94.2058C196.196 97.3211 196.221 100.362 196.243 103.301L196.245 103.582H195.964C193.46 103.599 191.03 103.614 188.695 103.629L188.429 103.631L188.428 103.366C188.417 101.246 188.404 99.2013 188.394 97.2449C188.425 96.3629 187.742 95.5848 186.926 95.4727C186.089 95.4283 185.103 95.4588 184.289 95.4657C183.507 95.5308 182.856 96.1608 182.722 96.8849C182.652 97.6188 182.706 98.473 182.691 99.2152C182.691 100.729 182.691 102.131 182.691 103.413V103.577L182.531 103.575C180.127 103.559 178.17 103.545 176.673 103.535C176.081 103.524 175.579 103.517 175.147 103.51C174.805 103.5 174.633 103.489 174.643 103.48Z" fill="#253138"/>
<path d="M300.082 468.534C300.082 468.584 299.373 468.632 298.091 468.677C296.672 468.706 294.847 468.742 292.656 468.789C288.069 468.854 281.731 468.894 274.731 468.894C267.73 468.894 261.39 468.854 256.802 468.789C254.612 468.742 252.788 468.706 251.37 468.677C250.088 468.632 249.377 468.584 249.377 468.534C249.377 468.484 250.088 468.437 251.37 468.393C252.788 468.364 254.612 468.325 256.802 468.278C261.39 468.214 267.73 468.174 274.731 468.174C281.731 468.174 288.069 468.214 292.656 468.278C294.847 468.325 296.672 468.364 298.091 468.393C299.373 468.437 300.082 468.484 300.082 468.534Z" fill="#455A63"/>
<path d="M379.78 481.058C379.78 481.258 350.586 481.419 314.583 481.419C278.565 481.419 249.377 481.258 249.377 481.058C249.377 480.858 278.565 480.699 314.583 480.699C350.586 480.699 379.78 480.858 379.78 481.058Z" fill="#455A63"/>
<path d="M339.029 492.841C339.029 493.041 318.957 493.202 294.205 493.202C269.444 493.202 249.377 493.041 249.377 492.841C249.377 492.641 269.444 492.482 294.205 492.482C318.957 492.482 339.029 492.641 339.029 492.841Z" fill="#455A63"/>
<path d="M382.359 515.776L378.307 511.697L374.449 515.559L374.467 503.881L382.375 503.892L382.359 515.776ZM378.307 511.189L378.434 511.316L382.002 514.908L382.017 504.252L374.825 504.24L374.809 514.693L378.307 511.189Z" fill="#253138"/>
<path d="M274.472 514.257L273.042 513.616C272.351 513.993 271.745 514.178 271.191 514.183C269.001 514.201 267.204 512.426 267.188 510.228C267.17 508.029 268.936 506.225 271.126 506.209C273.316 506.191 275.112 507.966 275.128 510.163C275.136 511.142 274.788 512.084 274.142 512.822L274.472 514.257ZM271.129 506.482C269.089 506.498 267.443 508.178 267.458 510.225C267.476 512.273 269.147 513.926 271.188 513.91C271.712 513.904 272.296 513.722 272.971 513.346L273.031 513.313L274.083 513.784L273.844 512.744L273.893 512.691C274.523 511.996 274.866 511.099 274.858 510.166C274.841 508.118 273.169 506.465 271.129 506.482Z" fill="#253138"/>
<path d="M283.664 513.641L282.026 509.626L278.952 506.815L286.405 506.754L283.664 513.641ZM279.649 507.082L282.263 509.494L283.662 512.913L286.003 507.03L279.649 507.082Z" fill="#253138"/>
<path d="M282.339 509.637L282.192 509.407L286.256 506.754L286.405 506.983L282.339 509.637Z" fill="#253138"/>
<path d="M262.744 507.654C262.531 506.585 261.477 505.752 260.392 505.795C259.317 505.838 258.34 506.736 258.198 507.805C258.038 506.739 257.049 505.856 255.973 505.831C254.888 505.804 253.847 506.655 253.651 507.728C253.507 508.507 253.776 509.319 254.215 509.979C254.656 510.638 255.255 511.173 255.848 511.699C256.678 512.435 257.445 513.128 258.276 513.863C259.094 513.114 259.79 512.41 260.61 511.66C261.193 511.125 261.784 510.581 262.213 509.915C262.644 509.248 262.9 508.432 262.744 507.654Z" fill="#FF605D"/>
<path d="M390.662 526.108C390.662 526.108 390.646 525.661 390.637 524.806C390.633 523.938 390.623 522.676 390.611 521.017C390.599 517.676 390.579 512.762 390.555 506.398C390.524 493.673 390.479 475.159 390.424 451.937L390.662 452.175C337.6 452.204 258.398 452.247 170.128 452.297H170.115L170.474 451.937C170.47 477.714 170.465 502.717 170.461 526.108L170.115 525.759C233.6 525.824 288.688 525.881 327.924 525.921C347.556 525.964 363.22 525.996 373.994 526.019C379.372 526.039 383.527 526.054 386.355 526.064C387.756 526.075 388.824 526.08 389.559 526.086C390.283 526.093 390.662 526.108 390.662 526.108C390.662 526.108 390.312 526.123 389.603 526.13C388.876 526.136 387.82 526.141 386.438 526.152C383.628 526.162 379.499 526.177 374.152 526.197C363.397 526.22 347.763 526.253 328.164 526.295C288.869 526.335 233.696 526.392 170.115 526.457H169.766V526.108C169.764 502.717 169.759 477.714 169.755 451.937V451.576H170.115H170.128C258.398 451.626 337.6 451.668 390.662 451.699H390.899V451.937C390.844 475.22 390.799 493.782 390.768 506.541C390.743 512.882 390.723 517.777 390.709 521.107C390.698 522.745 390.69 523.995 390.686 524.854C390.677 525.691 390.662 526.108 390.662 526.108Z" fill="#253138"/>
<path d="M240.378 464.678L240.1 513.713L179.01 513.366L179.287 464.33L240.378 464.678Z" fill="#EBEBEB"/>
<path d="M240.378 464.677C240.371 464.683 240.267 464.689 240.071 464.695C239.847 464.697 239.564 464.703 239.205 464.707C238.412 464.711 237.3 464.718 235.87 464.726C232.932 464.731 228.697 464.735 223.344 464.742C212.599 464.718 197.373 464.688 179.286 464.65L179.609 464.33C179.537 478.931 179.455 495.658 179.369 513.361C179.443 513.449 178.698 512.68 179.022 513.004H179.039H179.072H179.138L179.271 513.006L179.535 513.007L180.065 513.01L181.123 513.017L183.229 513.029C184.63 513.037 186.022 513.046 187.41 513.053C190.184 513.069 192.929 513.087 195.641 513.104C201.065 513.138 206.358 513.172 211.491 513.206C221.752 513.281 231.37 513.35 240.102 513.413L239.801 513.712C239.949 498.987 240.071 486.772 240.157 478.196C240.214 473.931 240.259 470.572 240.291 468.239C240.311 467.113 240.328 466.236 240.339 465.603C240.354 465.002 240.378 464.677 240.378 464.677C240.378 464.677 240.398 464.959 240.405 465.539C240.409 466.158 240.416 467.017 240.425 468.119C240.43 470.436 240.437 473.772 240.445 478.009C240.434 486.631 240.418 498.912 240.398 513.714V514.015L240.098 514.014C231.367 513.976 221.749 513.937 211.487 513.894C206.355 513.868 201.061 513.843 195.637 513.816C192.925 513.8 190.179 513.788 187.406 513.773C186.02 513.764 184.624 513.756 183.224 513.749L181.119 513.738L180.061 513.731L179.531 513.728L179.268 513.727H179.134L179.068 513.726H179.035H179.018C179.333 514.048 178.57 513.287 178.65 513.357C178.765 495.654 178.872 478.927 178.966 464.326L178.967 464.004L179.289 464.006C197.462 464.177 212.759 464.318 223.555 464.419C228.876 464.487 233.087 464.539 236.007 464.577C237.409 464.6 238.501 464.62 239.279 464.634C239.622 464.643 239.894 464.65 240.109 464.656C240.292 464.664 240.383 464.671 240.378 464.677Z" fill="#253138"/>
<path d="M181.134 510.29L237.933 510.614L238.174 467.752L181.377 467.428L181.134 510.29Z" fill="#DFDFDF"/>
<path d="M181.132 510.291L201.122 483.762L213.315 500.5L221.701 491.636L237.933 510.614L181.132 510.291Z" fill="#F5F5F5"/>
<path d="M218.647 480.597C218.633 483.077 216.618 485.076 214.148 485.063C211.678 485.048 209.688 483.027 209.702 480.547C209.716 478.067 211.729 476.069 214.199 476.082C216.669 476.097 218.66 478.117 218.647 480.597Z" fill="#F5F5F5"/>
<path d="M282.304 146.571C282.304 146.596 282.079 146.621 281.65 146.643C281.138 146.662 280.522 146.684 279.78 146.711C278.041 146.74 275.719 146.779 272.901 146.826C267.09 146.891 259.064 146.931 250.201 146.931C241.333 146.931 233.307 146.891 227.497 146.826C224.68 146.779 222.358 146.74 220.617 146.711C219.875 146.684 219.259 146.662 218.747 146.643C218.32 146.621 218.095 146.596 218.095 146.571C218.095 146.546 218.32 146.521 218.747 146.498C219.259 146.48 219.875 146.457 220.617 146.43C222.356 146.401 224.68 146.363 227.497 146.316C233.307 146.251 241.333 146.211 250.201 146.211C259.064 146.211 267.09 146.251 272.901 146.316C275.719 146.363 278.041 146.401 279.78 146.43C280.522 146.457 281.14 146.48 281.65 146.498C282.079 146.521 282.304 146.546 282.304 146.571Z" fill="#253138"/>
<path d="M372.554 417.645L366.534 411.582L360.802 417.321L360.828 399.965L372.581 399.984L372.554 417.645ZM366.536 410.827L366.725 411.015L372.024 416.354L372.049 400.518L361.359 400.502L361.335 416.035L366.536 410.827Z" fill="#253138"/>
<path d="M219.677 415.821L216.862 414.562C215.502 415.301 214.308 415.664 213.219 415.673C208.908 415.709 205.373 412.216 205.339 407.889C205.304 403.562 208.782 400.014 213.093 399.978C217.403 399.943 220.937 403.435 220.972 407.762C220.987 409.691 220.297 411.542 219.026 412.997L219.677 415.821ZM213.097 400.516C209.081 400.547 205.841 403.853 205.874 407.884C205.906 411.916 209.199 415.168 213.213 415.138C214.245 415.128 215.392 414.764 216.72 414.027L216.837 413.961L218.911 414.891L218.441 412.843L218.536 412.739C219.776 411.371 220.452 409.603 220.437 407.767C220.405 403.735 217.112 400.484 213.097 400.516Z" fill="#253138"/>
<path d="M237.77 414.607L234.544 406.704L228.494 401.17L243.167 401.051L237.77 414.607ZM229.865 401.696L235.017 406.444L237.763 413.176L242.374 401.596L229.865 401.696Z" fill="#253138"/>
<path d="M235.165 406.725L234.873 406.275L242.874 401.051L243.166 401.504L235.165 406.725Z" fill="#253138"/>
<path d="M196.592 402.822C196.171 400.716 194.097 399.078 191.961 399.162C189.844 399.247 187.922 401.015 187.642 403.122C187.329 401.02 185.38 399.283 183.262 399.233C181.126 399.183 179.076 400.854 178.69 402.966C178.407 404.503 178.938 406.1 179.804 407.399C180.67 408.698 181.851 409.747 183.018 410.783C184.652 412.233 186.163 413.595 187.797 415.045C189.408 413.57 190.779 412.183 192.39 410.707C193.54 409.655 194.702 408.584 195.548 407.272C196.392 405.959 196.898 404.353 196.592 402.822Z" fill="#FF605D"/>
<path d="M205.205 146.571C205.205 152.088 200.749 156.562 195.254 156.562C189.757 156.562 185.3 152.088 185.3 146.571C185.3 141.053 189.757 136.58 195.254 136.58C200.749 136.58 205.205 141.053 205.205 146.571Z" fill="#EBEBEB"/>
<path d="M368.799 360.327C368.799 360.527 327.066 360.687 275.603 360.687C224.12 360.687 182.398 360.527 182.398 360.327C182.398 360.127 224.12 359.967 275.603 359.967C327.066 359.967 368.799 360.127 368.799 360.327Z" fill="#455A63"/>
<path d="M368.799 344.742C368.799 344.942 327.066 345.104 275.603 345.104C224.12 345.104 182.398 344.942 182.398 344.742C182.398 344.543 224.12 344.381 275.603 344.381C327.066 344.381 368.799 344.543 368.799 344.742Z" fill="#455A63"/>
<path d="M283.858 376.12C283.858 376.319 261.145 376.481 233.132 376.481C205.108 376.481 182.398 376.319 182.398 376.12C182.398 375.921 205.108 375.759 233.132 375.759C261.145 375.759 283.858 375.921 283.858 376.12Z" fill="#455A63"/>
<path d="M271.337 545.91C271.328 548.137 269.546 549.934 267.36 549.924C265.173 549.914 263.408 548.099 263.417 545.873C263.427 543.645 265.207 541.845 267.395 541.856C269.582 541.866 271.346 543.681 271.337 545.91Z" fill="#253138"/>
<path d="M283.609 545.966C283.598 548.192 281.818 549.991 279.632 549.981C277.445 549.973 275.68 548.157 275.689 545.93C275.698 543.702 277.479 541.903 279.667 541.913C281.854 541.923 283.618 543.738 283.609 545.966Z" fill="#253138"/>
<path d="M295.88 546.024C295.87 548.25 294.09 550.05 291.903 550.038C289.716 550.031 287.949 548.215 287.959 545.986C287.969 543.758 289.75 541.961 291.937 541.971C294.125 541.981 295.89 543.796 295.88 546.024Z" fill="#253138"/>
<path d="M171.456 301.795L392.004 301.73L391.963 166.314L171.417 166.377L171.456 301.795Z" fill="#DFDFDF"/>
<path d="M191.797 301.787L254.995 216.862L294.176 269.971L320.731 241.564L372.81 301.734L191.797 301.787Z" fill="#F5F5F5"/>
<path d="M310.782 206.442C310.783 214.345 304.405 220.753 296.534 220.755C288.661 220.758 282.277 214.353 282.274 206.45C282.273 198.547 288.651 192.139 296.523 192.137C304.396 192.136 310.779 198.538 310.782 206.442Z" fill="#F5F5F5"/>
<path d="M391.39 427.614C391.387 424.718 391.256 302.388 391.065 121.291L391.39 121.618C324.882 121.628 249.91 121.637 170.868 121.65H170.843L171.202 121.291C171.177 235.849 171.154 341.868 171.134 427.614L170.843 427.322C304.586 427.499 388.984 427.611 391.39 427.614C388.985 427.618 304.586 427.73 170.843 427.908L170.551 427.91V427.614C170.532 341.868 170.508 235.849 170.483 121.291V120.928H170.843H170.868C249.91 120.941 324.882 120.953 391.39 120.963H391.716V121.291C391.65 211.927 391.592 288.542 391.553 342.508C391.516 369.453 391.487 390.741 391.467 405.303C391.451 412.564 391.437 418.146 391.427 421.923C391.419 423.795 391.414 425.22 391.41 426.187C391.403 427.139 391.39 427.614 391.39 427.614Z" fill="#253138"/>
<path d="M287.759 465.613L292.639 449.155C293.489 445.585 294.62 441.375 296.141 436.57C297.509 432.251 301.016 427.714 304.217 424.447C309.197 419.361 311.566 419.326 314.913 416.628C315.218 416.431 315.558 416.151 315.847 415.995C316.539 415.618 317.046 415.119 317.474 414.581C320.359 411.448 317.588 406.599 311.729 407.06C307.319 407.408 300.125 408.676 288.428 420.79C288.283 420.974 288.129 421.128 287.986 421.316C281.847 429.327 276.082 406.456 275.042 397.944C274.367 392.421 268.417 389.027 263.033 391.025L234.54 404.405C232.188 403.572 229.394 403.712 226.222 404.687C222.027 406.245 219.697 410.577 220.794 414.779L232.35 461.095L198.409 574.484H271.565L287.759 465.613Z" fill="#FFBE9D"/>
<path d="M343.959 361.474L321.345 405.965L310.038 402.811L253.199 449.231C248.362 453.181 241.273 452.55 237.206 447.805L215.566 422.556C215.566 422.556 259.202 403.683 267.272 388.061C275.342 372.438 266.016 368.896 266.016 368.896L286.553 345.465L343.959 361.474Z" fill="#E8505B"/>
<path d="M314.628 270.588C314.628 270.588 281.525 263.237 234.942 218.261C188.36 173.286 166.471 113.562 160.769 113.853C155.067 114.143 130.172 102.539 82.8191 205.956C35.4678 309.373 54.121 333.387 63.5427 333.195C72.9658 333 136.944 315.099 176.907 319.66C216.869 324.223 268.236 345.133 268.236 345.133L314.628 270.588Z" fill="#E8505B"/>
<path d="M384.951 326.957L373.658 348.514L368.598 358.171C361.66 371.418 345.609 376.894 332.07 370.631L261.119 345.811L302.439 251.099L373.326 289.028C386.932 296.308 392.128 313.255 384.951 326.957Z" fill="#E8505B"/>
<path d="M384.951 326.957L373.658 348.514L368.598 358.171C361.66 371.418 345.609 376.894 332.07 370.631L261.119 345.811L302.439 251.099L373.326 289.028C386.932 296.308 392.128 313.255 384.951 326.957Z" fill="black"/>
<path d="M86.646 207.838C61.4451 263.86 50.956 313.781 63.2158 319.34C75.4756 324.901 105.842 283.992 131.043 227.971C156.243 171.95 166.735 122.029 154.475 116.47C142.215 110.91 111.847 151.815 86.646 207.838Z" fill="#E8505B"/>
<path d="M86.646 207.838C61.4451 263.86 50.956 313.781 63.2158 319.34C75.4756 324.901 105.842 283.992 131.043 227.971C156.243 171.95 166.735 122.029 154.475 116.47C142.215 110.91 111.847 151.815 86.646 207.838Z" fill="black"/>
<path d="M391.04 358.108L371.809 352.043L383.71 329.325L398.132 338.327L391.04 358.108Z" fill="#E8505B"/>
<path d="M383.71 329.325L371.809 352.043L375.761 353.289L385.437 330.402L383.71 329.325Z" fill="black"/>
<path d="M370.459 334.565C370.176 335.19 360.579 331.445 349.024 326.2C337.459 320.955 328.323 316.197 328.604 315.573C328.884 314.95 338.478 318.695 350.04 323.94C361.598 329.185 370.739 333.942 370.459 334.565Z" fill="#E8505B"/>
<path d="M376.374 321.034C376.07 321.65 367.386 317.975 356.974 312.827C346.558 307.675 338.364 303.006 338.667 302.39C338.968 301.777 347.649 305.453 358.065 310.602C368.477 315.75 376.674 320.421 376.374 321.034Z" fill="#E8505B"/>
<path d="M362.998 348.758C362.896 349.087 360.612 348.557 356.967 347.426C355.147 346.862 352.99 346.148 350.603 345.318C348.232 344.456 345.772 343.205 343.134 342.005C332.613 337.102 324.58 332.302 324.842 331.733C325.154 331.06 333.741 334.896 344.164 339.752C346.779 340.942 349.203 342.251 351.49 343.211C353.786 344.143 355.845 345.012 357.563 345.778C361.002 347.312 363.097 348.431 362.998 348.758Z" fill="#E8505B"/>
<path d="M138.023 195.382C138.023 195.382 109.252 177.469 93.5096 216.497C77.7691 255.524 108.039 261.942 108.039 261.942C120.427 242.655 130.49 220.552 138.023 195.382Z" fill="#E8505B"/>
<path d="M168.623 148.869C168.791 148.898 168.381 151.548 167.494 156.325C166.584 161.094 165.298 168.017 163.452 176.517C162.236 180.702 160.907 185.274 159.482 190.174C158.761 192.629 158.013 195.168 157.247 197.781C156.861 199.09 156.469 200.415 156.072 201.758C155.643 203.091 155.082 204.398 154.581 205.745C152.508 211.115 150.335 216.749 148.082 222.585C147.516 224.044 146.945 225.516 146.369 227C145.809 228.492 145.019 229.894 144.347 231.363C142.94 234.274 141.514 237.228 140.071 240.216C138.623 243.204 137.191 246.155 135.78 249.065C135.047 250.504 134.434 251.996 133.615 253.362C132.808 254.734 132.01 256.095 131.217 257.445C128.04 262.832 124.973 268.031 122.049 272.988C121.302 274.216 120.624 275.467 119.847 276.631C119.039 277.778 118.241 278.907 117.454 280.022C115.881 282.247 114.351 284.41 112.873 286.501C109.913 290.658 107.152 294.538 104.625 298.09C99.1236 304.783 94.5093 310.062 91.3402 313.727C88.1518 317.376 86.326 319.34 86.1949 319.231C86.0639 319.123 87.6388 316.951 90.5983 313.114C93.6681 309.205 97.979 303.717 103.273 296.978C105.707 293.399 108.363 289.489 111.212 285.297C112.644 283.202 114.125 281.037 115.65 278.809C116.414 277.696 117.189 276.566 117.975 275.421C118.732 274.258 119.39 273.004 120.118 271.775C122.983 266.828 125.988 261.64 129.103 256.264C129.885 254.919 130.67 253.565 131.465 252.2C132.275 250.842 132.877 249.357 133.603 247.926C134.998 245.035 136.416 242.101 137.849 239.132C139.286 236.166 140.706 233.237 142.106 230.348C142.778 228.892 143.571 227.5 144.131 226.021C144.708 224.551 145.281 223.093 145.85 221.646C148.134 215.867 150.339 210.29 152.439 204.973C152.951 203.639 153.523 202.346 153.967 201.028C154.378 199.699 154.784 198.386 155.185 197.093C155.988 194.509 156.768 191.998 157.524 189.571C159.045 184.727 160.464 180.208 161.765 176.071C163.764 167.744 165.391 160.965 166.551 156.135C167.725 151.431 168.456 148.84 168.623 148.869Z" fill="black"/>
<path d="M222.46 419.457C225.084 424.24 227.763 429.099 231.647 432.922C235.53 436.745 240.866 439.453 246.277 438.906C251.689 438.359 256.817 433.845 256.875 428.384C259.473 430.344 263.453 429.282 265.605 426.838C267.756 424.394 268.455 420.998 268.713 417.745C272.241 419.835 277.147 418.177 279.502 414.813C281.856 411.448 282.002 406.913 280.861 402.965C279.721 399.016 277.444 395.511 275.197 392.073C277.914 392.294 280.791 392.483 283.222 391.247C285.654 390.01 287.293 386.783 285.876 384.446C285.044 383.074 283.446 382.392 281.919 381.913C277.662 380.576 274.676 379.504 270.244 380.02C269.214 380.03 272.016 391.756 244.202 407.794C227.781 417.262 222.46 419.457 222.46 419.457Z" fill="black"/>
<path d="M285.098 436.398C285.08 436.527 283.226 436.17 280.226 436.252C277.241 436.319 273.071 436.977 268.95 438.961C264.828 440.944 261.706 443.799 259.784 446.092C257.841 448.39 256.958 450.064 256.846 449.998C256.806 449.977 256.986 449.537 257.391 448.785C257.795 448.032 258.453 446.979 259.391 445.769C261.246 443.35 264.398 440.351 268.639 438.312C272.877 436.271 277.182 435.68 280.221 435.742C281.749 435.766 282.978 435.911 283.815 436.066C284.654 436.22 285.106 436.354 285.098 436.398Z" fill="#EB996E"/>
<path d="M224.273 412.02C228.754 416.341 231.818 421.113 236.518 425.464C238.654 427.442 241.971 431.188 244.833 431.687C247.696 432.185 249.53 431.803 250.663 429.117C251.58 426.942 249.932 423.969 248.794 422.176C245.8 417.46 242.937 413.774 240.695 410.108C239.645 408.391 241.005 408.036 241.5 408.831C243.657 411.076 246.873 413.021 248.805 415.465C251.45 418.811 251.931 423.242 258.852 421.841C259.766 421.655 260.679 421.338 261.421 420.769C264.026 418.767 264.136 415.286 263.04 412.498C262.181 410.313 260.672 408.46 259.187 406.645C262.132 409.985 265.348 413.501 270.032 413.881C272.755 414.101 275.49 412.827 276.59 410.317C277.976 407.157 275.989 404.103 273.995 401.633C270.46 397.255 266.516 393.21 262.233 389.569C260.639 388.213 258.606 387.454 256.517 387.441C254.094 387.425 251.061 387.882 249.564 389.998C246.845 393.839 247.683 397.235 247.683 397.235C247.683 397.235 241.608 394.142 236.726 397.376C231.844 400.611 230.635 406.171 230.635 406.171L224.273 412.02Z" fill="#FFBE9D"/>
<path d="M256.606 386.099C254.725 384.198 254.287 380.72 255.746 377.848C256.779 375.814 258.083 373.838 259.404 373.391C265.184 371.433 290.437 375.819 290.207 381.446C289.97 387.224 288.133 389.768 274.428 387.781C272.017 387.432 268.235 386.954 268.235 386.954L264.926 391.939L256.606 386.099Z" fill="#FFBE9D"/>
<path d="M261.127 409.662C260.927 409.785 259.006 405.849 255.082 402.319C251.199 398.743 247.11 397.207 247.212 396.996C247.241 396.917 248.296 397.189 249.886 397.941C251.473 398.688 253.567 399.973 255.564 401.785C257.554 403.602 259.033 405.569 259.928 407.082C260.829 408.597 261.203 409.626 261.127 409.662Z" fill="#EB996E"/>
<path d="M265.377 392.371C265.252 392.489 263.584 391.123 261.31 389.726C260.18 389.027 259.13 388.439 258.347 388.086C257.566 387.717 257.051 387.616 257.052 387.508C257.048 387.416 257.645 387.342 258.522 387.608C259.399 387.857 260.529 388.396 261.69 389.113C264.02 390.543 265.546 392.219 265.377 392.371Z" fill="#EB996E"/>
<path d="M269.616 387.14C269.6 387.292 267.402 387.355 264.753 386.589C263.437 386.185 262.327 385.548 261.641 384.952C260.948 384.36 260.658 383.865 260.727 383.806C260.859 383.683 262.429 385.181 264.966 385.901C267.471 386.63 269.654 386.9 269.616 387.14Z" fill="#EB996E"/>
<path d="M245.075 416.628C244.993 416.686 244.1 415.542 242.772 413.623C241.416 411.75 239.692 408.953 236.878 406.897C234.063 404.838 230.749 404.349 228.529 404.676C226.263 404.993 225.08 405.933 225.011 405.8C224.988 405.768 225.252 405.509 225.816 405.159C226.375 404.8 227.273 404.409 228.446 404.173C230.769 403.694 234.309 404.126 237.296 406.311C240.269 408.493 241.946 411.401 243.195 413.342C244.416 415.334 245.155 416.571 245.075 416.628Z" fill="#EB996E"/>
<path d="M264.394 472.704C264.416 472.902 259.793 473.569 254.073 474.194C248.35 474.818 243.694 475.164 243.672 474.966C243.65 474.768 248.271 474.101 253.995 473.476C259.715 472.852 264.372 472.506 264.394 472.704Z" fill="#EB996E"/>
<path d="M29.8301 199.87C13.556 199.87 0.362671 186.626 0.362671 170.285C0.362671 153.945 13.556 140.699 29.8301 140.699C46.1043 140.699 59.2976 153.945 59.2976 170.285C59.2976 186.626 46.1043 199.87 29.8301 199.87Z" fill="#FF605D"/>
<path d="M14.1298 180.189C16.9816 182.025 20.3672 183.095 24.0051 183.095C35.967 183.095 42.7229 172.953 42.3161 163.855C43.5738 162.944 44.6674 161.804 45.5306 160.505C44.375 161.019 43.1325 161.369 41.8307 161.524C43.1601 160.725 44.1819 159.457 44.6632 157.945C43.4179 158.686 42.0389 159.225 40.573 159.515C39.398 158.258 37.7225 157.474 35.869 157.474C31.7112 157.474 28.6553 161.369 29.5944 165.415C24.2396 165.145 19.4915 162.571 16.3155 158.657C14.6276 161.565 15.4399 165.368 18.3097 167.293C17.2533 167.259 16.259 166.969 15.3902 166.484C15.3213 169.482 17.4588 172.283 20.5575 172.908C19.6501 173.156 18.6585 173.213 17.6505 173.019C18.4682 175.59 20.8471 177.458 23.6672 177.511C20.9588 179.643 17.547 180.594 14.1298 180.189Z" fill="white"/>
<path d="M80.0483 531.304C52.7818 537.826 25.4091 520.92 18.9138 493.543C12.4185 466.165 29.2566 438.684 56.5245 432.163C83.7924 425.641 111.164 442.547 117.659 469.924C124.154 497.302 107.316 524.783 80.0483 531.304Z" fill="#455A64"/>
<path d="M62.9991 459.45C70.228 457.721 71.0899 457.545 73.9749 456.992C76.642 456.483 78.1824 456.583 79.2249 456.727C80.6053 456.918 81.6465 457.291 82.8201 458.016C83.9937 458.74 84.7949 459.505 85.5865 460.656C86.185 461.526 86.9655 462.859 87.7157 465.48C88.5252 468.314 88.7569 469.167 90.4793 476.425C92.2017 483.682 92.3769 484.55 92.9271 487.446C93.4346 490.125 93.3367 491.669 93.1933 492.716C93.003 494.102 92.6306 495.147 91.9094 496.326C91.1881 497.504 90.4255 498.307 89.2795 499.102C88.4135 499.703 87.0855 500.489 84.4749 501.241C81.652 502.054 80.8025 502.286 73.5736 504.016C66.3446 505.745 65.4827 505.921 62.5978 506.473C59.9293 506.984 58.3903 506.883 57.3477 506.739C55.9673 506.548 54.9261 506.176 53.7526 505.451C52.5804 504.726 51.7791 503.963 50.9862 502.811C50.3891 501.942 49.6058 500.608 48.857 497.987C48.0475 495.152 47.8158 494.299 46.0933 487.042C44.3709 479.784 44.1958 478.917 43.6455 476.021C43.1367 473.342 43.236 471.798 43.3794 470.751C43.5697 469.365 43.942 468.318 44.6633 467.141C45.3859 465.963 46.1471 465.159 47.2931 464.364C48.1592 463.763 49.4872 462.978 52.0977 462.226C54.9206 461.413 55.7701 461.179 62.9991 459.45ZM61.8379 454.554C54.4862 456.313 53.5705 456.565 50.7145 457.387C47.864 458.208 46.0065 459.14 44.444 460.223C42.8291 461.343 41.5384 462.633 40.3924 464.504C39.245 466.374 38.6796 468.113 38.4134 470.066C38.1542 471.954 38.1638 474.038 38.7196 476.962C39.2753 479.893 39.4643 480.827 41.2157 488.208C42.967 495.589 43.218 496.508 44.0372 499.376C44.855 502.238 45.7817 504.103 46.8615 505.672C47.9757 507.293 49.261 508.589 51.1255 509.739C52.9886 510.89 54.7193 511.459 56.6637 511.728C58.5447 511.988 60.623 511.976 63.5355 511.419C66.455 510.861 67.383 510.671 74.7347 508.913C82.0864 507.154 83.0021 506.902 85.8581 506.08C88.7086 505.259 90.5662 504.327 92.1286 503.244C93.7435 502.124 95.0343 500.834 96.1803 498.963C97.3263 497.091 97.8931 495.354 98.1606 493.401C98.4185 491.511 98.4074 489.428 97.8531 486.503C97.2959 483.574 97.1084 482.64 95.357 475.259C93.6056 467.878 93.3546 466.959 92.5355 464.091C91.7177 461.231 90.7896 459.364 89.7112 457.795C88.5955 456.174 87.3103 454.878 85.4472 453.728C83.5841 452.577 81.8534 452.008 79.9075 451.739C78.0265 451.48 75.9497 451.491 73.0371 452.048C70.1177 452.607 69.1896 452.796 61.8379 454.554Z" fill="white"/>
<path d="M64.9752 467.777C57.2981 469.613 52.5569 477.351 54.3855 485.059C56.2142 492.767 63.9216 497.526 71.5988 495.69C79.2759 493.854 84.0157 486.117 82.1871 478.409C80.3585 470.701 72.6524 465.941 64.9752 467.777ZM70.4363 490.793C65.4524 491.985 60.4506 488.895 59.2632 483.892C58.0759 478.888 61.1525 473.866 66.1364 472.674C71.1203 471.482 76.1221 474.571 77.3094 479.575C78.4968 484.577 75.4201 489.601 70.4363 490.793Z" fill="white"/>
<path d="M82.5429 462.992C82.9704 464.793 81.8631 466.601 80.0689 467.03C78.2734 467.46 76.4724 466.347 76.0449 464.545C75.6174 462.744 76.7247 460.936 78.5202 460.506C80.3144 460.077 82.1154 461.19 82.5429 462.992Z" fill="white"/>
<path d="M532.33 379.195C512.393 371.547 502.406 349.119 510.024 329.102C517.642 309.085 539.98 299.058 559.917 306.706C579.854 314.355 589.841 336.782 582.223 356.799C574.605 376.816 552.267 386.843 532.33 379.195Z" fill="#FF605D"/>
<path d="M566.298 349.538C570.02 338.964 564.626 327.262 554.05 323.205C543.601 319.197 531.958 324.142 527.579 334.276C527.462 334.556 527.345 334.837 527.237 335.119C525.843 338.784 525.562 342.592 526.214 346.193L518.756 355.24L530.83 355.934C533.031 358.537 535.902 360.644 539.306 361.95C550.046 366.07 562.046 360.737 566.118 350.036C566.18 349.871 566.244 349.707 566.298 349.538ZM540.48 358.861C537.158 357.587 534.45 355.416 532.515 352.716L525.47 352.317L529.811 347.049C528.877 343.611 528.975 339.87 530.332 336.306C530.533 335.776 530.762 335.256 531.015 334.757C534.953 326.822 544.402 323.042 552.875 326.293C561.459 329.585 565.99 338.917 563.453 347.557C563.329 347.992 563.186 348.418 563.024 348.848C559.605 357.831 549.491 362.318 540.48 358.861Z" fill="white"/>
<path d="M554.1 349.905C553.708 349.483 551.808 347.434 551.43 347.111C551.055 346.779 550.764 346.584 550.265 346.937C549.766 347.29 548.439 348.006 548.047 348.212C547.643 348.424 547.358 348.356 546.966 347.934C546.583 347.514 545.233 346.43 544.032 344.105C543.098 342.312 542.723 340.389 542.63 339.809C542.538 339.229 542.883 339.067 543.21 338.92C543.512 338.784 543.894 338.545 544.244 338.365C544.339 338.307 544.422 338.255 544.505 338.203C544.68 338.071 544.824 337.938 545.02 337.752C545.306 337.495 545.328 337.188 545.3 336.906C545.273 336.623 545.206 333.918 545.168 332.813C545.138 331.712 544.676 331.723 544.393 331.615C544.12 331.51 543.819 331.342 543.501 331.22C543.182 331.099 542.618 331.018 542 331.326C541.382 331.633 539.716 332.313 538.826 334.653C538.617 335.201 538.51 335.787 538.456 336.364C538.302 338.221 538.815 340 538.906 340.307C539.024 340.709 540.198 346.834 544.313 350.602C548.443 354.354 548.683 353.723 549.589 353.976C550.491 354.238 552.845 353.917 553.66 352.951C554.482 352 554.845 351.049 554.802 350.803C554.756 350.566 554.482 350.325 554.1 349.905Z" fill="white"/>
<path d="M465.954 486.453C452.882 486.453 442.285 475.814 442.285 462.69C442.285 449.565 452.882 438.926 465.954 438.926C479.026 438.926 489.623 449.565 489.623 462.69C489.623 475.814 479.026 486.453 465.954 486.453Z" fill="#455A64"/>
<path d="M462.348 477.053H468.11V462.568H472.129L472.557 457.718H468.11C468.11 457.718 468.11 455.907 468.11 454.955C468.11 453.812 468.337 453.359 469.439 453.359C470.326 453.359 472.557 453.359 472.557 453.359V448.326C472.557 448.326 469.269 448.326 468.567 448.326C464.28 448.326 462.348 450.222 462.348 453.851C462.348 457.012 462.348 457.718 462.348 457.718H459.351V462.629H462.348V477.053Z" fill="white"/>
<path d="M497.334 526.213C496.643 522.688 493.179 519.931 489.603 520.06C486.059 520.189 482.831 523.137 482.349 526.662C481.836 523.142 478.585 520.222 475.039 520.125C471.462 520.028 468.023 522.814 467.363 526.346C466.883 528.917 467.762 531.596 469.204 533.776C470.645 535.955 472.616 537.721 474.562 539.461C477.29 541.898 479.809 544.189 482.537 546.626C485.243 544.164 487.544 541.852 490.25 539.39C492.182 537.633 494.136 535.851 495.559 533.658C496.983 531.466 497.838 528.78 497.334 526.213Z" fill="#EBEBEB"/>
<path d="M454.906 321.758L459.759 330.667L468.631 335.538L459.759 340.409L454.906 349.317L450.055 340.409L441.182 335.538L450.055 330.667L454.906 321.758Z" fill="#EBEBEB"/>
<path d="M528.94 234.361L534.171 233.319L542.43 215.076L540.36 204.593C540.36 204.593 548.346 202.485 550.106 216.4C551.866 230.316 552.204 226.615 552.204 226.615C552.204 226.615 569.382 223.264 571.105 224.477C572.357 225.358 576.207 242.384 578.221 251.633C579.234 256.29 577.237 261.206 573.126 263.172C572.543 263.453 571.939 263.668 571.328 263.79C567.048 264.643 544.482 265.503 544.482 265.503L535.447 267.301L528.94 234.361Z" fill="#E0E0E0"/>
<path d="M513.399 234.466L523.71 269.741L532.667 267.957L525.715 232.764L513.399 234.466Z" fill="#E0E0E0"/>
<path d="M29.1435 377.815C34.0791 375.66 37.5433 370.476 37.495 364.42C37.4247 356.488 31.3624 350.108 23.9541 350.17C16.5487 350.231 10.5981 356.712 10.6684 364.645C10.7222 370.756 14.3422 375.91 19.3867 377.942C-1.21344 381.333 0.0139136 403.842 0.0139136 403.842L48.8252 403.435C48.8252 403.435 49.6444 380.652 29.1435 377.815Z" fill="#E0E0E0"/>
<path d="M175.947 0L182.416 11.877L194.246 18.3721L182.416 24.8671L175.947 36.7441L169.478 24.8671L157.649 18.3721L169.478 11.877L175.947 0Z" fill="#F5F5F5"/>
</svg>
