<svg width="779" height="668" viewBox="0 0 779 668" fill="none" xmlns="http://www.w3.org/2000/svg">
<path d="M370.863 307.754C376.341 304.582 385.307 304.582 390.788 307.754L685.118 478.174C690.599 481.348 690.599 486.539 685.118 489.712L490.026 602.667C484.547 605.84 475.58 605.839 470.099 602.669L175.768 432.254C170.288 429.08 170.288 423.886 175.768 420.715L370.863 307.754Z" fill="#6FC1EA"/>
<path d="M689.229 483.943L689.226 495.341C689.289 497.479 687.919 499.629 685.117 501.248L490.026 614.205C484.547 617.38 475.58 617.381 470.1 614.209L175.769 443.789C173.03 442.206 171.662 440.116 171.66 438.028L171.667 426.725C171.664 426.684 171.671 426.644 171.671 426.606C171.721 428.655 173.083 430.697 175.769 432.253L470.1 602.669C475.58 605.838 484.547 605.839 490.026 602.667L685.117 489.712C687.886 488.111 689.257 485.993 689.229 483.88V483.943Z" fill="#C4E9FB"/>
<path d="M380.098 64.234C380.098 57.8881 384.58 55.2941 390.059 58.4657L684.395 228.878C689.876 232.051 694.362 239.837 694.362 246.181L694.358 472.095C694.358 478.44 689.873 481.036 684.393 477.865L390.056 307.45C384.579 304.277 380.094 296.49 380.094 290.145L380.098 64.234Z" fill="#C4E9FB"/>
<path d="M676.422 457.097C678.614 458.365 680.407 457.329 680.407 454.79L680.408 247.338C680.408 244.798 678.614 241.684 676.422 240.416L398.033 79.2338C395.838 77.9651 394.046 79.0016 394.046 81.5403L394.045 288.991C394.045 291.53 395.836 294.645 398.029 295.914L676.422 457.097Z" fill="#E2F6FC"/>
<path d="M273.864 385.174C272.763 385.805 272.757 386.845 273.854 387.478L546.95 545.598C548.046 546.234 549.843 546.238 550.943 545.605L659.996 483.003C661.095 482.372 661.099 481.337 660.003 480.7L386.907 322.577C385.811 321.941 384.015 321.938 382.915 322.571L273.864 385.174Z" fill="#C4E9FB"/>
<path d="M287.848 482.736C286.751 483.37 286.75 484.408 287.848 485.043L378.925 537.779C380.02 538.412 381.814 538.412 382.91 537.779L449.183 499.407C450.276 498.773 450.276 497.734 449.183 497.1L358.102 444.366C357.007 443.73 355.213 443.73 354.118 444.363L287.848 482.736Z" fill="#D5D1EA"/>
<path d="M694.356 472.095L694.36 246.182C694.36 239.839 689.876 232.051 684.396 228.878L390.06 58.4671C387.433 56.9474 385.043 56.7638 383.257 57.6721C383.288 57.6559 383.312 57.6343 383.343 57.6195L391.173 53.1036C392.963 52.1549 395.387 52.333 398.043 53.8729L692.382 224.286C697.861 227.458 702.345 235.245 702.345 241.591L702.344 467.505C702.341 470.673 701.221 472.901 699.421 473.944L691.483 478.512C693.258 477.453 694.356 475.233 694.356 472.095Z" fill="#6FC1EA"/>
<path d="M373.882 350.685C372.789 351.318 371 351.32 369.906 350.685L357.801 343.677C356.706 343.042 356.706 342.007 357.801 341.374L369.906 334.364C371 333.731 372.789 333.731 373.882 334.364L385.986 341.373C387.082 342.007 387.082 343.042 385.986 343.677L373.882 350.685Z" fill="#6FC1EA"/>
<path d="M392.406 361.411C391.313 362.042 389.525 362.042 388.432 361.41L376.325 354.401C375.231 353.767 375.231 352.731 376.325 352.1L388.432 345.09C389.525 344.457 391.313 344.457 392.406 345.09L404.51 352.098C405.606 352.731 405.606 353.767 404.512 354.401L392.406 361.411Z" fill="#6FC1EA"/>
<path d="M410.931 372.134C409.837 372.768 408.047 372.768 406.953 372.134L394.848 365.125C393.757 364.493 393.757 363.458 394.848 362.827L406.955 355.813C408.048 355.181 409.837 355.181 410.931 355.813L423.033 362.825C424.129 363.458 424.131 364.493 423.035 365.125L410.931 372.134Z" fill="#6FC1EA"/>
<path d="M429.455 382.859C428.362 383.492 426.569 383.492 425.476 382.859L413.372 375.851C412.278 375.218 412.278 374.181 413.372 373.549L425.478 366.539C426.569 365.905 428.362 365.905 429.455 366.539L441.559 373.549C442.653 374.181 442.653 375.218 441.559 375.851L429.455 382.859Z" fill="#6FC1EA"/>
<path d="M447.979 393.586C446.885 394.219 445.093 394.219 444.001 393.585L431.894 386.576C430.802 385.944 430.802 384.907 431.894 384.275L444.001 377.265C445.093 376.631 446.885 376.631 447.979 377.265L460.082 384.275C461.176 384.907 461.177 385.943 460.084 386.576L447.979 393.586Z" fill="#6FC1EA"/>
<path d="M466.5 404.31C465.407 404.943 463.617 404.943 462.524 404.31L450.42 397.303C449.327 396.67 449.327 395.633 450.42 395L462.527 387.99C463.617 387.356 465.407 387.356 466.5 387.99L478.605 394.999C479.701 395.632 479.701 396.67 478.605 397.303L466.5 404.31Z" fill="#6FC1EA"/>
<path d="M485.025 415.037C483.931 415.67 482.141 415.67 481.048 415.037L468.945 408.027C467.85 407.394 467.85 406.358 468.944 405.726L481.05 398.715C482.141 398.082 483.931 398.082 485.025 398.715L497.129 405.726C498.225 406.358 498.225 407.394 497.131 408.027L485.025 415.037Z" fill="#6FC1EA"/>
<path d="M503.547 425.762C502.455 426.395 500.665 426.395 499.572 425.762L487.469 418.754C486.375 418.121 486.373 417.083 487.466 416.451L499.573 409.441C500.663 408.808 502.455 408.808 503.547 409.443L515.652 416.451C516.749 417.084 516.749 418.121 515.653 418.754L503.547 425.762Z" fill="#6FC1EA"/>
<path d="M522.073 436.485C520.979 437.118 519.19 437.118 518.097 436.485L505.993 429.478C504.898 428.844 504.898 427.807 505.992 427.175L518.099 420.166C519.19 419.533 520.979 419.533 522.073 420.167L534.177 427.175C535.271 427.807 535.271 428.844 534.177 429.478L522.073 436.485Z" fill="#6FC1EA"/>
<path d="M540.595 447.212C539.502 447.845 537.712 447.845 536.618 447.211L524.514 440.203C523.421 439.57 523.421 438.534 524.514 437.901L536.618 430.892C537.712 430.259 539.502 430.259 540.595 430.892L552.699 437.901C553.794 438.534 553.794 439.57 552.699 440.203L540.595 447.212Z" fill="#6FC1EA"/>
<path d="M559.119 457.936C558.027 458.57 556.237 458.57 555.142 457.936L543.038 450.929C541.944 450.295 541.944 449.258 543.038 448.626L555.142 441.616C556.237 440.982 558.027 440.982 559.119 441.616L571.225 448.626C572.319 449.258 572.319 450.295 571.225 450.928L559.119 457.936Z" fill="#6FC1EA"/>
<path d="M577.644 468.663C576.55 469.296 574.76 469.296 573.666 468.662L561.561 461.654C560.466 461.021 560.466 459.982 561.559 459.352L573.666 452.342C574.76 451.708 576.55 451.708 577.644 452.342L589.747 459.352C590.842 459.983 590.842 461.021 589.747 461.654L577.644 468.663Z" fill="#6FC1EA"/>
<path d="M596.167 479.386C595.074 480.02 593.284 480.02 592.19 479.386L580.086 472.377C578.993 471.744 578.993 470.708 580.086 470.076L592.19 463.066C593.283 462.432 595.074 462.432 596.168 463.066L608.271 470.076C609.365 470.708 609.365 471.744 608.273 472.378L596.167 479.386Z" fill="#6FC1EA"/>
<path d="M392.773 340.419C391.679 341.053 389.892 341.053 388.798 340.419L376.113 333.074C375.019 332.441 375.019 331.405 376.115 330.772L381.495 327.655C382.588 327.022 384.378 327.022 385.47 327.655L398.155 335C399.249 335.633 399.249 336.67 398.155 337.302L392.773 340.419Z" fill="#6FC1EA"/>
<path d="M411.964 351.529C410.872 352.163 409.082 352.163 407.989 351.529L395.303 344.187C394.212 343.554 394.21 342.517 395.303 341.884L400.687 338.767C401.779 338.134 403.567 338.134 404.661 338.767L417.348 346.113C418.441 346.746 418.441 347.782 417.348 348.414L411.964 351.529Z" fill="#6FC1EA"/>
<path d="M431.157 362.64C430.062 363.276 428.273 363.276 427.179 362.64L414.495 355.297C413.402 354.664 413.402 353.628 414.495 352.995L419.877 349.878C420.97 349.245 422.758 349.245 423.852 349.878L436.537 357.223C437.631 357.856 437.631 358.891 436.538 359.524L431.157 362.64Z" fill="#6FC1EA"/>
<path d="M450.35 373.753C449.256 374.388 447.465 374.388 446.37 373.753L433.687 366.41C432.596 365.777 432.596 364.738 433.687 364.107L439.069 360.991C440.164 360.357 441.952 360.357 443.046 360.992L455.729 368.336C456.825 368.969 456.825 370.005 455.729 370.637L450.35 373.753Z" fill="#6FC1EA"/>
<path d="M469.537 384.865C468.445 385.498 466.655 385.498 465.563 384.865L452.877 377.521C451.786 376.887 451.783 375.852 452.877 375.219L458.259 372.103C459.355 371.47 461.143 371.47 462.235 372.103L474.921 379.447C476.013 380.079 476.013 381.117 474.921 381.747L469.537 384.865Z" fill="#6FC1EA"/>
<path d="M488.732 395.976C487.637 396.609 485.848 396.609 484.755 395.976L472.07 388.631C470.976 387.998 470.976 386.965 472.07 386.332L477.452 383.214C478.544 382.58 480.334 382.58 481.428 383.214L494.114 390.559C495.206 391.192 495.206 392.227 494.114 392.86L488.732 395.976Z" fill="#6FC1EA"/>
<path d="M507.922 407.089C506.829 407.722 505.039 407.722 503.947 407.089L491.262 399.744C490.168 399.111 490.168 398.075 491.262 397.442L496.642 394.327C497.738 393.693 499.526 393.693 500.621 394.327L513.302 401.67C514.398 402.303 514.398 403.34 513.304 403.971L507.922 407.089Z" fill="#6FC1EA"/>
<path d="M527.114 418.2C526.022 418.833 524.23 418.833 523.135 418.2L510.454 410.856C509.359 410.223 509.359 409.186 510.454 408.553L515.836 405.438C516.929 404.804 518.716 404.804 519.811 405.438L532.495 412.78C533.589 413.415 533.589 414.45 532.496 415.083L527.114 418.2Z" fill="#6FC1EA"/>
<path d="M546.306 429.312C545.213 429.945 543.423 429.945 542.331 429.312L529.644 421.969C528.553 421.336 528.553 420.298 529.644 419.667L535.026 416.55C536.122 415.917 537.909 415.917 539.002 416.55L551.686 423.894C552.782 424.527 552.782 425.563 551.687 426.197L546.306 429.312Z" fill="#6FC1EA"/>
<path d="M565.496 440.423C564.403 441.058 562.611 441.058 561.519 440.423L548.835 433.08C547.743 432.446 547.743 431.411 548.835 430.779L554.218 427.661C555.309 427.03 557.098 427.028 558.192 427.661L570.877 435.007C571.971 435.64 571.971 436.675 570.877 437.307L565.496 440.423Z" fill="#6FC1EA"/>
<path d="M584.689 451.536C583.594 452.171 581.805 452.171 580.712 451.536L568.027 444.192C566.933 443.559 566.933 442.522 568.027 441.89L573.408 438.774C574.501 438.14 576.292 438.14 577.385 438.774L590.069 446.117C591.162 446.75 591.161 447.787 590.069 448.42L584.689 451.536Z" fill="#6FC1EA"/>
<path d="M603.881 462.646C602.787 463.281 600.997 463.281 599.904 462.646L587.219 455.306C586.126 454.67 586.126 453.635 587.219 453.002L592.598 449.884C593.693 449.251 595.482 449.251 596.577 449.884L609.26 457.23C610.357 457.863 610.357 458.9 609.26 459.531L603.881 462.646Z" fill="#6FC1EA"/>
<path d="M623.072 473.758C621.977 474.392 620.187 474.392 619.093 473.758L606.408 466.414C605.316 465.78 605.316 464.746 606.408 464.113L611.79 460.996C612.885 460.363 614.673 460.363 615.766 460.996L628.45 468.339C629.546 468.973 629.546 470.01 628.453 470.643L623.072 473.758Z" fill="#6FC1EA"/>
<path d="M642.313 484.899C641.22 485.533 639.431 485.533 638.337 484.902L625.653 477.557C624.558 476.923 624.558 475.886 625.653 475.255L631.035 472.137C632.129 471.504 633.916 471.504 635.01 472.138L647.696 479.483C648.789 480.115 648.789 481.151 647.696 481.784L642.313 484.899Z" fill="#6FC1EA"/>
<path d="M624.002 495.503C622.908 496.136 621.118 496.136 620.026 495.503L598.658 483.132C597.565 482.498 597.565 481.463 598.658 480.83L610.761 473.823C611.856 473.187 613.645 473.187 614.741 473.823L636.108 486.193C637.202 486.825 637.201 487.861 636.105 488.496L624.002 495.503Z" fill="#6FC1EA"/>
<path d="M299.614 393.687C298.519 394.321 296.729 394.321 295.635 393.687L283.53 386.679C282.436 386.046 282.436 385.009 283.532 384.376L295.635 377.367C296.729 376.733 298.517 376.733 299.61 377.367L311.716 384.376C312.81 385.009 312.81 386.046 311.717 386.679L299.614 393.687Z" fill="#6FC1EA"/>
<path d="M318.136 404.411C317.043 405.046 315.251 405.046 314.16 404.411L302.054 397.405C300.96 396.772 300.96 395.733 302.056 395.102L314.16 388.092C315.251 387.459 317.043 387.459 318.134 388.092L330.238 395.102C331.335 395.733 331.335 396.772 330.241 397.405L318.136 404.411Z" fill="#6FC1EA"/>
<path d="M336.661 415.137C335.567 415.771 333.777 415.771 332.681 415.137L320.578 408.13C319.483 407.497 319.483 406.46 320.578 405.827L332.681 398.818C333.777 398.185 335.565 398.185 336.657 398.818L348.762 405.828C349.857 406.46 349.857 407.497 348.764 408.13L336.661 415.137Z" fill="#6FC1EA"/>
<path d="M540.637 522.323C539.544 522.954 537.753 522.954 536.661 522.323L524.556 515.311C523.459 514.68 523.46 513.643 524.556 513.012L527.409 511.357C528.502 510.724 530.292 510.724 531.386 511.357L543.49 518.368C544.583 519 544.583 520.038 543.49 520.671L540.637 522.323Z" fill="#6FC1EA"/>
<path d="M512.683 517.055C511.59 517.689 509.8 517.689 508.709 517.055L496.605 510.049C495.508 509.414 495.508 508.378 496.605 507.747L499.455 506.095C500.549 505.459 502.339 505.459 503.433 506.095L515.538 513.102C516.632 513.736 516.632 514.772 515.538 515.403L512.683 517.055Z" fill="#6FC1EA"/>
<path d="M531.208 527.781C530.114 528.414 528.324 528.414 527.229 527.781L515.127 520.772C514.033 520.139 514.034 519.104 515.127 518.471L517.979 516.819C519.072 516.183 520.862 516.183 521.956 516.819L534.062 523.825C535.156 524.459 535.156 525.496 534.062 526.129L531.208 527.781Z" fill="#6FC1EA"/>
<path d="M549.731 538.506C548.638 539.139 546.847 539.139 545.754 538.506L533.65 531.496C532.557 530.864 532.557 529.827 533.65 529.195L536.503 527.543C537.596 526.91 539.386 526.91 540.48 527.543L552.585 534.552C553.678 535.185 553.678 536.221 552.584 536.854L549.731 538.506Z" fill="#6FC1EA"/>
<path d="M355.185 425.862C354.09 426.495 352.299 426.495 351.206 425.862L339.101 418.854C338.007 418.222 338.007 417.186 339.102 416.553L351.206 409.543C352.299 408.91 354.089 408.91 355.182 409.543L367.286 416.553C368.38 417.186 368.38 418.222 367.286 418.854L355.185 425.862Z" fill="#6FC1EA"/>
<path d="M457.14 484.894C456.046 485.528 454.256 485.528 453.16 484.894L357.626 429.579C356.529 428.946 356.529 427.91 357.626 427.277L369.731 420.267C370.824 419.634 372.613 419.634 373.706 420.267L469.241 475.584C470.335 476.215 470.337 477.252 469.245 477.886L457.14 484.894Z" fill="#6FC1EA"/>
<path d="M475.612 495.591C474.518 496.225 472.73 496.225 471.634 495.591L459.531 488.582C458.437 487.949 458.437 486.913 459.531 486.281L471.634 479.27C472.73 478.637 474.518 478.637 475.612 479.271L487.715 486.281C488.81 486.913 488.81 487.949 487.715 488.582L475.612 495.591Z" fill="#6FC1EA"/>
<path d="M494.135 506.316C493.042 506.951 491.252 506.951 490.161 506.316L478.056 499.309C476.961 498.676 476.961 497.638 478.056 497.007L490.161 489.995C491.252 489.364 493.042 489.364 494.135 489.998L506.239 497.007C507.335 497.638 507.335 498.676 506.241 499.309L494.135 506.316Z" fill="#6FC1EA"/>
<path d="M383.192 377.527C382.1 378.16 380.31 378.16 379.218 377.527L367.113 370.517C366.02 369.884 366.02 368.849 367.113 368.216L379.218 361.206C380.31 360.571 382.1 360.571 383.192 361.206L395.298 368.214C396.392 368.849 396.392 369.884 395.299 370.517L383.192 377.527Z" fill="#6FC1EA"/>
<path d="M364.621 366.772C363.528 367.405 361.737 367.405 360.644 366.772L339.278 354.4C338.184 353.765 338.184 352.733 339.278 352.1L351.384 345.091C352.478 344.458 354.267 344.458 355.358 345.091L376.727 357.461C377.818 358.093 377.818 359.13 376.727 359.763L364.621 366.772Z" fill="#6FC1EA"/>
<path d="M401.717 388.251C400.625 388.884 398.835 388.884 397.741 388.251L385.636 381.242C384.542 380.608 384.542 379.573 385.636 378.941L397.741 371.931C398.835 371.297 400.625 371.297 401.717 371.931L413.822 378.94C414.916 379.573 414.916 380.608 413.823 381.242L401.717 388.251Z" fill="#6FC1EA"/>
<path d="M420.241 398.976C419.148 399.608 417.356 399.608 416.263 398.975L404.16 391.966C403.066 391.335 403.066 390.297 404.16 389.667L416.263 382.655C417.356 382.022 419.148 382.022 420.241 382.655L432.344 389.665C433.437 390.297 433.437 391.335 432.344 391.966L420.241 398.976Z" fill="#6FC1EA"/>
<path d="M438.764 409.702C437.671 410.336 435.88 410.336 434.788 409.701L422.684 402.693C421.589 402.06 421.589 401.024 422.684 400.392L434.788 393.381C435.88 392.748 437.671 392.748 438.764 393.381L450.87 400.392C451.964 401.024 451.964 402.06 450.87 402.693L438.764 409.702Z" fill="#6FC1EA"/>
<path d="M457.289 420.427C456.195 421.06 454.405 421.06 453.312 420.426L441.207 413.419C440.112 412.784 440.112 411.749 441.207 411.116L453.312 404.106C454.405 403.472 456.195 403.472 457.289 404.106L469.393 411.116C470.488 411.749 470.488 412.784 469.393 413.419L457.289 420.427Z" fill="#6FC1EA"/>
<path d="M475.812 431.151C474.719 431.786 472.929 431.786 471.838 431.151L459.732 424.146C458.635 423.511 458.635 422.473 459.731 421.842L471.838 414.832C472.929 414.199 474.719 414.199 475.812 414.832L487.916 421.842C489.013 422.473 489.013 423.51 487.917 424.143L475.812 431.151Z" fill="#6FC1EA"/>
<path d="M494.337 441.878C493.244 442.511 491.453 442.511 490.359 441.878L478.256 434.87C477.159 434.237 477.159 433.2 478.253 432.567L490.36 425.557C491.453 424.923 493.244 424.923 494.337 425.557L506.44 432.567C507.535 433.2 507.535 434.237 506.44 434.87L494.337 441.878Z" fill="#6FC1EA"/>
<path d="M512.858 452.604C511.765 453.238 509.975 453.238 508.883 452.604L496.78 445.595C495.684 444.962 495.684 443.924 496.78 443.293L508.883 436.284C509.975 435.65 511.765 435.65 512.861 436.284L524.964 443.293C526.059 443.924 526.059 444.961 524.964 445.594L512.858 452.604Z" fill="#6FC1EA"/>
<path d="M531.385 463.328C530.29 463.962 528.5 463.962 527.408 463.328L515.303 456.321C514.207 455.686 514.207 454.65 515.303 454.017L527.408 447.008C528.5 446.374 530.29 446.374 531.385 447.008L543.489 454.017C544.582 454.65 544.582 455.686 543.489 456.319L531.385 463.328Z" fill="#6FC1EA"/>
<path d="M549.909 474.052C548.814 474.686 547.025 474.686 545.93 474.052L533.827 467.045C532.733 466.412 532.733 465.375 533.827 464.742L545.93 457.732C547.025 457.099 548.814 457.099 549.909 457.732L562.012 464.742C563.106 465.374 563.106 466.41 562.012 467.045L549.909 474.052Z" fill="#6FC1EA"/>
<path d="M568.43 484.777C567.337 485.413 565.547 485.413 564.453 484.777L552.348 477.77C551.254 477.137 551.254 476.101 552.348 475.469L564.453 468.458C565.547 467.825 567.337 467.825 568.431 468.458L580.535 475.469C581.627 476.101 581.627 477.137 580.535 477.77L568.43 484.777Z" fill="#6FC1EA"/>
<path d="M586.956 495.503C585.861 496.136 584.071 496.136 582.978 495.503L570.874 488.494C569.778 487.86 569.778 486.826 570.874 486.195L582.978 479.182C584.071 478.548 585.861 478.548 586.956 479.182L599.062 486.192C600.156 486.824 600.155 487.86 599.059 488.494L586.956 495.503Z" fill="#6FC1EA"/>
<path d="M605.479 506.23C604.386 506.863 602.593 506.863 601.5 506.23L589.396 499.221C588.301 498.587 588.301 497.553 589.395 496.919L601.5 489.907C602.593 489.274 604.384 489.274 605.479 489.909L617.584 496.919C618.678 497.55 618.677 498.587 617.581 499.221L605.479 506.23Z" fill="#6FC1EA"/>
<path d="M369.024 390.773C367.931 391.406 366.141 391.406 365.048 390.773L352.942 383.765C351.847 383.132 351.847 382.094 352.942 381.462L365.048 374.452C366.141 373.818 367.931 373.818 369.024 374.452L381.129 381.462C382.225 382.094 382.225 383.132 381.129 383.763L369.024 390.773Z" fill="#6FC1EA"/>
<path d="M350.5 380.046C349.407 380.679 347.62 380.679 346.526 380.046L320.753 365.125C319.659 364.495 319.659 363.457 320.753 362.824L332.86 355.813C333.952 355.181 335.74 355.181 336.834 355.813L362.605 370.735C363.698 371.367 363.698 372.405 362.605 373.038L350.5 380.046Z" fill="#6FC1EA"/>
<path d="M387.547 401.497C386.455 402.132 384.666 402.132 383.571 401.497L371.468 394.489C370.372 393.856 370.372 392.819 371.468 392.186L383.571 385.178C384.666 384.543 386.455 384.543 387.549 385.178L399.653 392.186C400.747 392.819 400.747 393.856 399.653 394.489L387.547 401.497Z" fill="#6FC1EA"/>
<path d="M406.07 412.223C404.978 412.856 403.19 412.856 402.097 412.223L389.99 405.216C388.896 404.581 388.896 403.545 389.99 402.913L402.097 395.903C403.19 395.27 404.978 395.27 406.071 395.903L418.177 402.913C419.271 403.545 419.271 404.581 418.177 405.216L406.07 412.223Z" fill="#6FC1EA"/>
<path d="M424.595 422.947C423.504 423.581 421.714 423.581 420.621 422.947L408.517 415.938C407.42 415.305 407.42 414.269 408.515 413.637L420.621 406.627C421.714 405.994 423.504 405.994 424.595 406.627L436.702 413.637C437.795 414.269 437.795 415.305 436.702 415.938L424.595 422.947Z" fill="#6FC1EA"/>
<path d="M443.122 433.674C442.029 434.307 440.239 434.307 439.145 433.674L427.039 426.664C425.946 426.031 425.946 424.993 427.039 424.361L439.145 417.353C440.238 416.719 442.027 416.719 443.122 417.354L455.225 424.361C456.32 424.994 456.32 426.031 455.225 426.664L443.122 433.674Z" fill="#6FC1EA"/>
<path d="M461.643 444.399C460.55 445.032 458.761 445.032 457.667 444.399L445.564 437.391C444.469 436.758 444.469 435.72 445.564 435.088L457.667 428.078C458.761 427.444 460.55 427.444 461.644 428.078L473.748 435.088C474.843 435.72 474.843 436.758 473.748 437.391L461.643 444.399Z" fill="#6FC1EA"/>
<path d="M480.169 455.125C479.075 455.758 477.287 455.758 476.192 455.125L464.088 448.116C462.994 447.482 462.994 446.447 464.088 445.815L476.192 438.805C477.287 438.172 479.075 438.172 480.169 438.805L492.274 445.815C493.368 446.447 493.368 447.483 492.274 448.116L480.169 455.125Z" fill="#6FC1EA"/>
<path d="M498.69 465.85C497.598 466.485 495.808 466.485 494.716 465.85L482.612 458.843C481.516 458.21 481.516 457.172 482.61 456.541L494.716 449.529C495.806 448.896 497.596 448.896 498.689 449.529L510.796 456.541C511.891 457.174 511.891 458.21 510.796 458.843L498.69 465.85Z" fill="#6FC1EA"/>
<path d="M517.216 476.574C516.123 477.207 514.333 477.207 513.239 476.574L501.136 469.567C500.041 468.933 500.041 467.896 501.135 467.265L513.239 460.255C514.332 459.622 516.122 459.622 517.216 460.255L529.32 467.265C530.416 467.896 530.416 468.933 529.32 469.567L517.216 476.574Z" fill="#6FC1EA"/>
<path d="M535.738 487.301C534.645 487.934 532.855 487.934 531.763 487.301L519.657 480.293C518.563 479.658 518.563 478.622 519.657 477.989L531.763 470.98C532.855 470.346 534.645 470.346 535.738 470.982L547.843 477.989C548.938 478.623 548.938 479.66 547.843 480.293L535.738 487.301Z" fill="#6FC1EA"/>
<path d="M554.262 498.025C553.171 498.66 551.381 498.66 550.288 498.025L538.182 491.017C537.088 490.384 537.088 489.347 538.182 488.714L550.288 481.706C551.38 481.071 553.169 481.071 554.262 481.706L566.367 488.714C567.461 489.349 567.461 490.384 566.368 491.017L554.262 498.025Z" fill="#6FC1EA"/>
<path d="M586.955 516.953C585.859 517.587 584.071 517.587 582.978 516.953L556.705 501.741C555.613 501.108 555.613 500.071 556.705 499.438L568.81 492.43C569.905 491.797 571.692 491.797 572.787 492.43L599.06 507.643C600.152 508.274 600.152 509.311 599.06 509.945L586.955 516.953Z" fill="#6FC1EA"/>
<path d="M359.945 406.969C358.852 407.602 357.063 407.602 355.972 406.969L343.866 399.96C342.772 399.326 342.772 398.288 343.866 397.658L355.972 390.646C357.063 390.015 358.852 390.015 359.946 390.646L372.053 397.658C373.147 398.288 373.147 399.326 372.053 399.96L359.945 406.969Z" fill="#6FC1EA"/>
<path d="M341.386 396.219C340.293 396.853 338.5 396.853 337.408 396.218L302.229 375.85C301.136 375.218 301.136 374.182 302.229 373.549L314.336 366.541C315.429 365.906 317.219 365.906 318.313 366.541L353.492 386.909C354.584 387.541 354.584 388.577 353.492 389.21L341.386 396.219Z" fill="#6FC1EA"/>
<path d="M378.47 417.692C377.379 418.325 375.587 418.325 374.494 417.692L362.39 410.683C361.293 410.05 361.293 409.012 362.389 408.381L374.494 401.372C375.587 400.739 377.379 400.739 378.47 401.372L390.577 408.381C391.67 409.012 391.67 410.05 390.577 410.683L378.47 417.692Z" fill="#6FC1EA"/>
<path d="M396.994 428.417C395.901 429.051 394.112 429.051 393.018 428.417L380.913 421.41C379.819 420.776 379.819 419.739 380.913 419.107L393.018 412.097C394.112 411.463 395.901 411.463 396.995 412.097L409.098 419.107C410.194 419.739 410.194 420.776 409.098 421.408L396.994 428.417Z" fill="#6FC1EA"/>
<path d="M415.518 439.141C414.426 439.776 412.636 439.776 411.543 439.141L399.436 432.134C398.341 431.5 398.341 430.465 399.436 429.832L411.543 422.823C412.636 422.189 414.426 422.189 415.518 422.823L427.623 429.832C428.716 430.465 428.716 431.5 427.623 432.134L415.518 439.141Z" fill="#6FC1EA"/>
<path d="M434.04 449.868C432.947 450.502 431.16 450.501 430.065 449.865L417.96 442.859C416.865 442.226 416.865 441.19 417.96 440.558L430.065 433.547C431.159 432.914 432.947 432.914 434.04 433.547L446.146 440.558C447.24 441.19 447.24 442.226 446.148 442.859L434.04 449.868Z" fill="#6FC1EA"/>
<path d="M452.565 460.594C451.473 461.227 449.683 461.227 448.59 460.592L436.484 453.585C435.391 452.952 435.391 451.915 436.484 451.282L448.59 444.274C449.683 443.64 451.473 443.64 452.565 444.274L464.668 451.282C465.765 451.915 465.765 452.952 464.668 453.585L452.565 460.594Z" fill="#6FC1EA"/>
<path d="M471.091 471.319C469.998 471.952 468.206 471.952 467.112 471.318L455.011 464.31C453.915 463.677 453.915 462.641 455.008 462.008L467.114 454.998C468.206 454.365 469.998 454.365 471.091 454.998L483.193 462.008C484.288 462.641 484.288 463.677 483.193 464.31L471.091 471.319Z" fill="#6FC1EA"/>
<path d="M489.615 482.043C488.521 482.677 486.731 482.677 485.638 482.042L473.533 475.037C472.441 474.403 472.441 473.365 473.533 472.733L485.638 465.723C486.731 465.09 488.521 465.09 489.615 465.723L501.718 472.733C502.813 473.365 502.813 474.403 501.718 475.037L489.615 482.043Z" fill="#6FC1EA"/>
<path d="M508.137 492.77C507.044 493.403 505.254 493.403 504.163 492.769L492.058 485.761C490.963 485.128 490.963 484.09 492.057 483.459L504.163 476.448C505.254 475.816 507.044 475.815 508.137 476.448L520.243 483.459C521.337 484.09 521.337 485.128 520.243 485.761L508.137 492.77Z" fill="#6FC1EA"/>
<path d="M526.661 503.494C525.568 504.127 523.777 504.127 522.684 503.494L510.58 496.486C509.485 495.853 509.485 494.816 510.58 494.184L522.684 487.174C523.777 486.541 525.568 486.541 526.661 487.174L538.765 494.184C539.861 494.816 539.861 495.853 538.765 496.486L526.661 503.494Z" fill="#6FC1EA"/>
<path d="M568.431 527.679C567.338 528.314 565.547 528.314 564.454 527.679L529.102 507.211C528.008 506.577 528.008 505.543 529.102 504.909L541.209 497.901C542.302 497.266 544.092 497.266 545.184 497.901L580.535 518.368C581.626 519 581.626 520.036 580.535 520.672L568.431 527.679Z" fill="#6FC1EA"/>
<path d="M337.574 327.215L355.665 337.645L398.948 312.214L381.311 302.003L337.574 327.215Z" fill="black" fill-opacity="0.3"/>
<path d="M695.757 483.92L674.379 471.544L632.081 497.866L651.919 509.302L695.757 483.92Z" fill="black" fill-opacity="0.3"/>
<path d="M668.717 468.438L539.438 393.591L497.14 419.913L625.436 493.87L668.717 468.438Z" fill="black" fill-opacity="0.3"/>
<path d="M533.845 389.788L404.565 314.942L362.269 341.264L490.563 415.219L533.845 389.788Z" fill="black" fill-opacity="0.3"/>
<path d="M641.74 635.28L660.898 624.421L598.894 588.596L607.243 584.917L496.226 520.772C512.94 509.507 521.326 495.526 521.326 481.532V462.665C521.327 447.228 511.158 431.797 490.819 420.017C470.478 408.242 443.823 402.353 417.161 402.353C390.504 402.353 363.848 408.244 343.511 420.017C323.17 431.797 313.001 447.228 313.001 462.664V481.53C313.001 496.967 323.17 512.4 343.508 524.176C363.849 535.953 390.507 541.844 417.164 541.842C439.047 541.844 460.923 537.866 479.309 529.932L519.816 553.337L508.951 559.493C508.951 559.493 506.64 561.506 510.872 563.952L634.295 635.263C634.295 635.263 638.264 637.251 641.74 635.28ZM326.04 462.664C326.04 449.162 334.937 435.658 352.73 425.356C370.523 415.053 393.842 409.906 417.161 409.903C440.485 409.903 463.807 415.053 481.6 425.356C499.392 435.658 508.286 449.164 508.286 462.665C508.286 476.168 499.39 489.67 481.6 499.97C463.804 510.273 440.485 515.425 417.164 515.425L353.664 495.927L326.04 462.664Z" fill="black" fill-opacity="0.3"/>
<path d="M499.435 414.195C479.096 402.418 452.439 396.531 425.778 396.531C399.122 396.531 372.465 402.419 352.128 414.195C331.789 425.972 321.619 441.406 321.619 456.84V475.709C321.619 491.142 331.789 506.577 352.126 518.353C372.468 530.129 399.124 536.019 425.782 536.017C452.44 536.019 479.096 530.129 499.435 518.353C519.774 506.577 529.945 491.145 529.945 475.712V456.842C529.946 441.407 519.776 425.972 499.435 414.195ZM490.217 494.147C472.42 504.452 449.103 509.601 425.782 509.601C402.462 509.601 379.142 504.452 361.346 494.147C343.553 483.845 334.658 470.341 334.658 456.84C334.658 443.339 343.553 429.838 361.346 419.534C379.14 409.234 402.458 404.085 425.778 404.081C449.103 404.081 472.423 409.234 490.217 419.534C508.011 429.838 516.905 443.339 516.905 456.842C516.905 470.343 508.005 483.845 490.217 494.147Z" fill="#8B8B8B"/>
<path d="M361.347 430.879C379.141 420.576 402.458 415.427 425.778 415.427C449.102 415.424 472.424 420.576 490.219 430.879C505.515 439.736 514.216 450.963 516.362 462.514C516.712 460.629 516.905 458.735 516.905 456.843C516.905 443.34 508.012 429.838 490.219 419.534C472.424 409.233 449.102 404.081 425.778 404.081C402.458 404.083 379.141 409.233 361.347 419.534C343.554 429.838 334.659 443.34 334.659 456.842C334.659 458.735 334.852 460.629 335.2 462.514C337.35 450.96 346.05 439.736 361.347 430.879Z" fill="#C1C1C1"/>
<path d="M425.779 406.815C402.459 406.815 379.141 411.962 361.347 422.265C343.554 432.57 334.659 446.073 334.659 459.575C334.659 473.075 343.554 486.579 361.347 496.881C379.143 507.185 402.463 512.337 425.783 512.335C449.104 512.337 472.421 507.185 490.219 496.881C508.006 486.579 516.906 473.078 516.906 459.575C516.906 446.073 508.012 432.57 490.219 422.265C472.424 411.962 449.104 406.814 425.779 406.815Z" fill="#77D2FF" fill-opacity="0.3"/>
<path d="M488.259 490.102C471.209 498.498 448.864 502.696 426.52 502.696C404.174 502.696 381.833 498.498 364.782 490.102C357.553 486.544 351.871 482.514 347.71 478.217C351.85 483.686 357.763 488.812 365.495 493.291C382.144 502.933 403.962 507.751 425.782 507.751C447.602 507.751 469.418 502.933 486.067 493.291C491.185 490.327 495.505 487.083 499.05 483.641C495.94 485.921 492.351 488.089 488.259 490.102Z" fill="white"/>
<path d="M499.435 414.196C479.096 402.419 452.439 396.532 425.778 396.532C399.122 396.532 372.465 402.421 352.128 414.196C331.789 425.973 321.619 441.407 321.619 456.842C321.619 472.276 331.789 487.71 352.126 499.487C372.468 511.264 399.124 517.154 425.782 517.151C452.44 517.154 479.096 511.264 499.435 499.487C519.774 487.712 529.945 472.28 529.945 456.843C529.946 441.409 519.776 425.973 499.435 414.196ZM490.217 494.148C472.42 504.454 449.103 509.602 425.782 509.602C402.462 509.602 379.142 504.454 361.346 494.148C343.553 483.846 334.658 470.342 334.658 456.842C334.658 443.34 343.553 429.838 361.346 419.534C379.14 409.233 402.458 404.085 425.778 404.081C449.103 404.081 472.423 409.233 490.217 419.534C508.011 429.838 516.905 443.34 516.905 456.843C516.905 470.345 508.005 483.846 490.217 494.148Z" fill="#C1C1C1"/>
<path d="M490.219 422.265C472.424 411.962 449.104 406.814 425.78 406.815C402.459 406.815 379.14 411.962 361.346 422.265C344.06 432.276 335.197 445.308 334.705 458.421C334.781 459.789 334.949 461.151 335.201 462.514C337.35 450.96 346.049 439.736 361.346 430.879C379.14 420.576 402.459 415.427 425.78 415.427C449.104 415.424 472.424 420.576 490.219 430.879C505.515 439.736 514.216 450.963 516.363 462.514C516.617 461.151 516.781 459.789 516.856 458.421C516.365 445.308 507.504 432.276 490.219 422.265Z" fill="#8B8B8B"/>
<path d="M497.591 414.444C477.76 402.965 451.768 397.226 425.778 397.226C399.791 397.227 373.801 402.966 353.973 414.447C334.144 425.927 324.228 440.977 324.228 456.024C324.228 471.069 334.144 486.119 353.973 497.599C373.802 509.083 399.793 514.824 425.782 514.823C451.771 514.824 477.76 509.083 497.591 497.599C517.416 486.12 527.332 471.072 527.332 456.024C527.333 440.977 517.419 425.927 497.591 414.444ZM490.217 494.148C472.42 504.454 449.102 509.603 425.782 509.603C402.462 509.603 379.141 504.454 361.345 494.148C343.552 483.846 334.658 470.342 334.658 456.842C334.658 443.34 343.552 429.838 361.345 419.534C379.14 409.234 402.458 404.085 425.778 404.081C449.102 404.081 472.423 409.234 490.217 419.534C508.01 429.838 516.905 443.34 516.905 456.843C516.905 470.345 508.005 483.846 490.217 494.148Z" fill="#AAAAAA"/>
<path d="M490.219 422.265C472.424 411.962 449.102 406.814 425.778 406.815C402.458 406.815 379.14 411.962 361.346 422.265C343.553 432.57 334.659 446.073 334.659 459.575C334.659 472.602 342.967 485.624 359.534 495.776C370.935 480.679 389.989 461.256 420.099 445.367C444.535 432.478 474.11 427.978 496.927 426.615C494.848 425.115 492.624 423.657 490.219 422.265Z" fill="white" fill-opacity="0.3"/>
<path d="M415.096 410.996C397.132 412.313 379.755 416.951 365.962 424.938C359.085 428.922 353.663 433.422 349.648 438.217C352.739 436.099 356.232 434.071 360.174 432.179C373.98 425.555 391.04 421.448 408.883 419.848C410.844 416.638 413.017 413.629 415.096 410.996Z" fill="white"/>
<path d="M485.6 424.936C469.889 415.839 449.529 411.08 428.942 410.637C426.917 413.5 425.298 416.493 424.076 419.098C424.758 419.089 425.44 419.074 426.123 419.074C449.993 419.071 473.862 423.444 492.073 432.176C495.342 433.745 498.307 435.405 500.991 437.133C497.08 432.741 491.96 428.62 485.6 424.936Z" fill="white"/>
<path d="M539.894 525.79L500.277 503.045C498.773 502.185 496.699 502.315 494.416 503.637C489.819 506.3 486.096 512.77 486.096 518.089C486.096 520.765 487.039 522.643 488.559 523.506L528.179 546.252C529.682 547.106 531.749 546.971 534.035 545.652C538.628 542.992 542.353 536.523 542.353 531.201C542.353 528.528 541.41 526.656 539.894 525.79Z" fill="#AAAAAA"/>
<path d="M542.354 531.201C542.354 536.523 538.628 542.992 534.034 545.652C531.751 546.972 529.683 547.106 528.18 546.252C526.658 545.391 525.715 543.51 525.715 540.836C525.715 535.515 529.438 529.045 534.034 526.385C536.32 525.061 538.391 524.932 539.895 525.791C541.411 526.658 542.354 528.53 542.354 531.201Z" fill="#B8BEC3"/>
<path d="M487.259 512.526C486.526 514.386 486.098 516.301 486.098 518.089C486.098 520.765 487.04 522.644 488.562 523.508L528.179 546.252C529.682 547.106 531.752 546.971 534.036 545.652C535.536 544.782 536.941 543.502 538.157 541.992L487.259 512.526Z" fill="#8B8B8B"/>
<path d="M668.174 589.731L546.108 521.092C543.305 519.493 539.445 519.734 535.181 522.204C526.615 527.162 521.327 536.895 521.327 546.81C521.327 551.801 523.084 555.297 525.923 556.908L646.335 627.878C649.137 629.471 652.993 629.223 657.248 626.759C665.812 621.8 672.756 609.741 672.756 599.824C672.756 594.839 671.005 591.347 668.174 589.731Z" fill="#E1A730"/>
<path d="M567.051 644.753C570.378 646.68 570.378 649.833 567.051 651.757L541.494 666.555C538.166 668.482 532.722 668.482 529.397 666.555L503.838 651.757C500.513 649.833 500.511 646.68 503.837 644.753L529.397 629.955C532.722 628.028 538.166 628.028 541.494 629.955L567.051 644.753Z" fill="#1F1F1F"/>
<path d="M146.433 484.273C149.76 486.2 149.76 489.353 146.433 491.277L120.876 506.075C117.548 508.002 112.104 508.002 108.779 506.075L83.2202 491.277C79.8946 489.353 79.8933 486.2 83.2188 484.273L108.779 469.475C112.104 467.548 117.548 467.548 120.876 469.475L146.433 484.273Z" fill="#1F1F1F"/>
<path d="M719.774 567.789C722.144 569.164 722.144 571.41 719.774 572.781L701.561 583.324C699.188 584.696 695.309 584.696 692.939 583.324L674.728 572.781C672.359 571.41 672.358 569.164 674.728 567.789L692.939 557.246C695.309 555.873 699.188 555.873 701.561 557.246L719.774 567.789Z" fill="#1F1F1F"/>
<path d="M777.455 592.015C778.973 592.895 778.973 594.333 777.455 595.212L765.795 601.962C764.277 602.84 761.793 602.84 760.275 601.962L748.614 595.212C747.098 594.333 747.096 592.895 748.614 592.015L760.275 585.264C761.793 584.385 764.277 584.385 765.795 585.264L777.455 592.015Z" fill="#1F1F1F"/>
<path d="M399.998 619.755C402.493 621.202 402.493 623.566 399.998 625.012L380.836 636.1C378.341 637.546 374.262 637.546 371.767 636.1L352.606 625.012C350.115 623.566 350.112 621.202 352.606 619.755L371.767 608.664C374.262 607.22 378.341 607.22 380.836 608.664L399.998 619.755Z" fill="#1F1F1F"/>
<path d="M144.42 545.193C145.938 546.073 145.938 547.512 144.42 548.391L132.76 555.14C131.242 556.019 128.757 556.019 127.239 555.14L115.579 548.391C114.062 547.512 114.061 546.073 115.579 545.193L127.239 538.443C128.757 537.564 131.242 537.564 132.76 538.443L144.42 545.193Z" fill="#1F1F1F"/>
<path d="M646.713 173.506C646.713 178.551 650.273 184.743 654.632 187.265L682.976 203.676C687.333 206.197 690.896 204.134 690.896 199.09V166.268C690.896 161.221 687.335 155.031 682.976 152.508L654.632 136.099C650.273 133.576 646.713 135.639 646.713 140.686V173.506Z" fill="#BB1DBE"/>
<path d="M690.899 199.09V166.268C690.899 161.221 687.338 155.033 682.979 152.51L654.633 136.1C652.715 134.991 650.954 134.768 649.581 135.297L654.36 132.36C655.801 131.441 657.84 131.524 660.085 132.825L688.432 149.236C692.789 151.759 696.351 157.949 696.356 162.994L696.35 195.816C696.35 198.403 695.414 200.203 693.915 201.006L688.672 204.156V204.151C690.047 203.294 690.899 201.55 690.899 199.09Z" fill="#E532C7"/>
<path d="M679.124 163.148L677.558 160.43L673.954 162.518C674.586 163.348 675.176 164.218 675.707 165.132L679.124 163.148Z" fill="white"/>
<path d="M662.56 155.92L658.959 149.664L657.392 150.574L660.809 156.507C661.337 156.206 661.929 156.022 662.56 155.92Z" fill="white"/>
<path d="M669.366 158.032V151.76L667.15 150.479V156.75C667.518 156.914 667.88 157.041 668.255 157.26C668.638 157.478 668.997 157.773 669.366 158.032Z" fill="white"/>
<path d="M653.999 160.658L657.715 162.807C657.75 161.944 657.871 161.16 658.069 160.446L653.999 158.094V160.658Z" fill="white"/>
<path d="M678.449 172.247C678.641 173.187 678.762 174.111 678.804 175.014L682.516 177.165V174.602L678.449 172.247Z" fill="white"/>
<path d="M668.256 160.184C663.802 157.604 660.183 159.696 660.183 164.859C660.183 167.298 661.238 169.9 662.306 172.408C663.415 175.005 664.845 176.608 664.845 178.871V183.695C664.845 184.768 665.603 186.082 666.525 186.615L669.99 188.625C670.915 189.158 671.67 188.721 671.67 187.648C671.67 187.648 671.674 184.341 671.67 182.823C671.67 180.562 673.103 180.612 674.205 179.299C675.278 178.029 676.332 176.646 676.336 174.21C676.332 169.045 672.714 162.762 668.256 160.184ZM672.612 173.629C672.612 173.629 673.621 169.845 668.906 162.186C668.906 162.186 675.263 166.548 675.08 175.061L672.612 173.629Z" fill="white"/>
<path d="M589.926 140.781C589.926 145.826 593.487 152.018 597.848 154.539L626.192 170.95C630.548 173.471 634.115 171.408 634.115 166.366V133.544C634.115 128.498 630.55 122.308 626.192 119.785L597.848 103.375C593.49 100.853 589.926 102.914 589.926 107.961V140.781Z" fill="#C8EDF4"/>
<path d="M634.115 166.364V133.544C634.115 128.496 630.55 122.308 626.192 119.785L597.848 103.375C595.93 102.265 594.168 102.042 592.798 102.573V102.571L597.573 99.6347C599.018 98.7156 601.053 98.7993 603.301 100.099L631.647 116.51C636.002 119.032 639.565 125.222 639.571 130.269L639.565 163.09C639.565 165.677 638.629 167.479 637.129 168.281L631.885 171.431V171.425C633.261 170.568 634.115 168.826 634.115 166.364Z" fill="#C8EDF4"/>
<path d="M623.677 135.178L618.416 132.134V128.004C618.416 127.437 618.017 126.741 617.526 126.459L606.272 119.943C605.784 119.659 605.383 119.893 605.383 120.459L605.382 124.585L600.366 121.682C599.877 121.397 599.477 121.63 599.477 122.198L599.476 142.786C599.476 143.353 599.876 144.05 600.366 144.334L623.677 157.831C624.168 158.113 624.566 157.878 624.566 157.312L624.568 136.724C624.568 136.158 624.168 135.462 623.677 135.178ZM607.138 122.443L616.661 127.958V131.116L607.138 125.602V122.443ZM621.577 150.838L601.999 139.504V138.335L621.577 149.668V150.838ZM621.58 146.33L601.999 134.992V133.823L621.58 145.16V146.33ZM621.58 141.82L601.999 130.484V129.314L621.58 140.651V141.82Z" fill="#F5F5F5"/>
<path d="M531.706 107.252C531.706 112.297 535.267 118.49 539.625 121.01L567.969 137.422C572.327 139.943 575.892 137.88 575.892 132.837V100.015C575.892 94.9677 572.328 88.7797 567.969 86.2559L539.625 69.8458C535.267 67.3247 531.706 69.3855 531.706 74.4318V107.252Z" fill="#F71732"/>
<path d="M575.892 132.836V100.014C575.892 94.9677 572.327 88.7797 567.968 86.2559L539.624 69.8458C537.706 68.735 535.947 68.5151 534.575 69.0441V69.0428L539.35 66.106C540.796 65.1869 542.832 65.2706 545.077 66.5716L573.423 82.9817C577.779 85.5028 581.341 91.6935 581.345 96.7398L581.343 129.561C581.343 132.15 580.406 133.95 578.907 134.752L573.663 137.902V137.897C575.039 137.04 575.892 135.299 575.892 132.836Z" fill="#F71732"/>
<path d="M544.322 101.111V106.728C544.322 108.348 545.245 110.506 547.096 112.814C550.797 117.431 556.798 120.905 560.499 120.573C562.349 120.407 563.271 119.32 563.271 117.699V112.084L553.798 112.933L544.322 101.111Z" fill="#F5F5F5"/>
<path d="M570.549 110.245L553.798 89.3492L537.046 90.85L553.798 111.745L570.549 110.245Z" fill="#F5F5F5"/>
<path d="M474.689 73.6139C474.689 78.6588 478.248 84.8523 482.607 87.372L510.952 103.783C515.31 106.306 518.872 104.241 518.872 99.1974V66.3759C518.872 61.3296 515.31 55.1402 510.952 52.6164L482.607 36.2063C478.249 33.6852 474.689 35.7475 474.689 40.7937V73.6139Z" fill="#597CF6"/>
<path d="M518.875 99.1974V66.3759C518.875 61.3296 515.313 55.1389 510.955 52.6164L482.608 36.2063C480.693 35.0956 478.93 34.8783 477.557 35.406V35.4047L482.335 32.4679C483.776 31.5488 485.815 31.6325 488.063 32.9321L516.408 49.3436C520.763 51.866 524.326 58.0554 524.332 63.1017L524.324 95.9205C524.324 98.5091 523.389 100.312 521.891 101.114L516.646 104.263V104.259C518.023 103.402 518.875 101.659 518.875 99.1974Z" fill="#2F55D7"/>
<path d="M510.451 68.8565L483.112 53.028L497.105 69.0994L510.451 68.8565Z" fill="#F5F5F5"/>
<path d="M497.105 72.2805L483.112 53.0267V74.5816L510.451 90.4087V68.8565L497.105 72.2805Z" fill="#F5F5F5"/>
<path d="M417.799 41.7574C417.799 46.8023 421.359 52.9957 425.718 55.5154L454.061 71.9269C458.42 74.4493 461.985 72.3844 461.985 67.3409V34.5193C461.985 29.4731 458.421 23.2837 454.061 20.7599L425.718 4.35112C421.359 1.82867 417.799 3.8909 417.799 8.93715V41.7574Z" fill="#E1A730"/>
<path d="M461.985 67.3408V34.5193C461.985 29.473 458.421 23.285 454.061 20.7612L425.718 4.35246C423.8 3.24172 422.039 3.02038 420.667 3.54808L425.443 0.612645C426.888 -0.30645 428.925 -0.222772 431.171 1.07692L459.517 17.487C463.873 20.0095 467.435 26.2016 467.439 31.2465L467.435 64.0667C467.435 66.6552 466.499 68.4556 464.999 69.2573L459.757 72.4073V72.4019C461.131 71.5449 461.985 69.8012 461.985 67.3408Z" fill="#E5A82B"/>
<path d="M447.056 46.8684L441.005 50.3707L434.954 39.8625C431.483 40.2444 429.156 43.2851 429.156 48.3017L452.853 62.0179C452.853 57.0014 450.525 51.2695 447.056 46.8684Z" fill="#F5F5F5"/>
<path d="M441.005 40.1783C445.779 42.941 449.648 40.6993 449.648 35.1739C449.648 29.6458 445.779 22.9233 441.005 20.1593C436.233 17.3966 432.362 19.637 432.362 25.1651C432.362 30.6918 436.23 37.4143 441.005 40.1783Z" fill="#F5F5F5"/>
<path d="M279.572 526.779C277.111 539.127 274.54 564.791 272.4 576.066C270.255 587.34 269.401 596.033 270.366 603.227C271.328 610.424 274.508 619.914 274.508 619.914C274.508 619.914 278.501 625.577 275.192 627.14C271.881 628.702 269.154 625.672 265.942 620.987C262.728 616.301 252.455 606.975 250.555 605.07C251.598 604.026 252.485 603.443 252.917 598.072C253.344 592.704 248.631 568.654 247.239 558.992C245.845 549.327 253.769 529.25 255.482 523.265C257.194 517.276 254.629 508.419 252.058 499.507C249.489 490.596 248.306 462.68 248.306 462.68C248.306 462.68 243.062 431.648 247.022 422.843C250.984 414.04 283.639 418.119 288.459 423.938C293.277 429.755 293.921 452.801 292.206 469.336C290.494 485.871 282.037 514.433 279.572 526.779Z" fill="#FFAF73"/>
<path d="M218.429 574.997L217.65 583.202C217.65 583.202 221.643 583.593 220.666 586.813C219.693 590.036 216.48 587.888 215.992 585.249C215.506 582.615 212.976 580.762 211.223 579.784C209.473 578.806 202.071 574.997 202.071 574.997C202.071 574.997 204.217 570.677 205.023 567.29C205.827 563.901 203.381 543.841 202.425 531.722C201.468 519.602 212.234 503.645 215.945 493.806C219.654 483.968 214.387 461.769 212.953 441.249C211.517 420.731 219.176 409.092 219.176 409.092L251.84 423.133V443.53C251.84 443.53 248.308 462.677 244.78 479.167C241.251 495.655 233.654 509.646 231.38 515.164C229.108 520.684 222.524 545.88 220.662 554.88C218.795 563.88 218.429 574.997 218.429 574.997Z" fill="#FFAF73"/>
<path d="M260.061 556.68C263.35 544.502 268.156 519.003 264.741 501.752C261.326 484.498 269.305 418.064 269.305 418.064H269.312C277.925 418.89 286.218 421.225 288.46 423.936C293.278 429.753 293.923 452.798 292.207 469.335C290.495 485.869 282.037 514.433 279.572 526.781C277.111 539.128 274.54 564.79 272.4 576.063C270.255 587.338 269.402 596.033 270.367 603.226C271.329 610.422 274.509 619.914 274.509 619.914C274.509 619.914 278.501 625.576 275.192 627.139C271.881 628.699 269.156 625.67 265.943 620.984C264.728 619.215 262.507 616.784 260.11 614.338C260.283 613.625 260.512 612.811 260.82 611.862C262.591 606.406 260.693 603.361 260.82 602.346C260.946 601.331 256.773 568.858 260.061 556.68Z" fill="#CD7A38"/>
<path d="M212.208 550.919C213.159 533.772 215.599 519.209 217.908 513.63C220.215 508.049 226.727 499.476 227.543 485.729C228.12 475.964 230.115 436.387 231.221 414.272L251.84 423.133V443.532C251.84 443.532 248.307 462.679 244.78 479.168C241.251 495.657 233.653 509.646 231.378 515.164C229.107 520.684 222.523 545.882 220.66 554.881C218.795 563.88 218.428 574.999 218.428 574.999L217.65 583.203C217.65 583.203 221.643 583.593 220.666 586.813C219.694 590.035 216.48 587.889 215.993 585.249C215.506 582.615 212.974 580.762 211.222 579.786C210.463 579.361 208.643 578.405 206.823 577.458C208.703 572.083 211.581 562.245 212.208 550.919Z" fill="#CD7A38"/>
<path d="M251.462 305.831L251.725 306.23L262.346 311.704L265.198 320.428L248.082 312.681L251.462 305.831Z" fill="white"/>
<path d="M301.794 384.377L277.384 372.678L282.767 363.048L301.794 384.377Z" fill="#333333"/>
<path d="M309.904 362.661C309.904 362.661 310.459 354.134 309.904 353.579C309.351 353.024 296.764 350.258 296.764 350.258L309.904 362.661Z" fill="#FFAF73"/>
<path d="M309.708 353.468C309.805 353.51 309.877 353.549 309.904 353.579C310.46 354.132 309.904 362.662 309.904 362.662L305.51 358.515C306.969 356.644 308.431 354.93 309.708 353.468Z" fill="#CD7A38"/>
<path d="M250.558 605.07C250.558 605.07 244.524 607.902 243.013 612.638C241.503 617.371 244.912 621.376 246.079 625.773C247.247 630.163 247.246 641.688 247.246 641.688L249.293 641.098C249.293 641.098 249.099 630.359 250.558 627.917C252.019 625.477 255.718 625.576 258.736 627.917C261.754 630.264 270.423 638.758 275.385 638.758C280.354 638.758 296.32 625.187 295.543 621.378C294.765 617.568 274.509 619.913 274.509 619.913C274.509 619.913 278.502 625.576 275.193 627.14C271.882 628.7 269.156 625.672 265.944 620.986C262.731 616.3 252.457 606.975 250.558 605.07Z" fill="#1E1E1E"/>
<path d="M202.071 574.999C202.071 574.999 209.473 578.807 211.222 579.786C212.976 580.763 215.506 582.616 215.992 585.25C216.48 587.889 219.691 590.036 220.664 586.813C221.64 583.593 217.648 583.203 217.648 583.203L218.428 574.999C218.428 574.999 223.394 573.048 224.273 573.634C225.146 574.221 224.757 591.305 221.251 594.821C216.383 599.705 209.08 593.941 207.134 594.039C207.134 594.039 203.141 594.822 201.585 599.604C200.026 604.389 199.149 608.293 199.149 608.293L197.203 607.708C197.203 607.708 199.734 598.237 198.468 594.135C197.203 590.036 195.157 586.619 195.839 583.299C196.52 579.979 202.071 574.999 202.071 574.999Z" fill="#1E1E1E"/>
<path d="M291.226 428.393C291.226 428.393 293.358 436.113 293.891 456.982C294.425 477.848 284.983 505.502 284.983 505.502C284.983 505.502 276.126 511.03 261.991 509.257C255.412 508.432 219.946 493.636 216.057 483.818C216.057 483.818 211.641 443.352 211.641 430.595C211.641 417.839 221.889 401.893 221.889 401.893C221.889 401.893 284.945 401.565 291.226 428.393Z" fill="#4B4B4B"/>
<path d="M291.226 428.394C291.226 428.394 293.358 436.113 293.891 456.982C294.425 477.848 284.983 505.502 284.983 505.502C284.983 505.502 278.443 509.575 267.642 509.602C268.986 491.76 267.674 468.88 266.234 462.936C264.452 455.607 248.453 453.229 232.255 447.683C222.533 444.353 215.662 438.317 211.718 434.019C211.668 432.733 211.641 431.581 211.641 430.595C211.641 417.839 221.889 401.893 221.889 401.893C221.889 401.893 284.945 401.566 291.226 428.394Z" fill="#2C2C2C"/>
<path d="M280.43 330.132C280.43 330.132 288.186 352.375 287.408 359.531C286.633 366.685 282.654 382.705 283.946 389.704C285.236 396.704 293.457 434.343 294.856 443.208C294.856 443.208 291.378 449.558 269.305 450.959C247.238 452.358 218.366 439.071 210.3 428.649C210.3 428.649 215.907 409.771 220.558 400.904C225.212 392.038 234.208 381.929 231.726 373.841C229.246 365.754 207.066 328.89 206.445 319.869C205.824 310.847 208.928 303.071 213.734 301.049C218.544 299.027 235.967 302.137 235.967 302.137C235.967 302.137 247.41 306.221 259.781 313.586C267.844 318.386 277.551 325.835 280.43 330.132Z" fill="#797979"/>
<path d="M257.627 358.13C257.929 348.461 271.601 338.728 281.385 332.985C283.438 339.219 288.012 353.954 287.406 359.529C286.633 366.684 282.654 382.704 283.946 389.703C285.236 396.702 293.456 434.343 294.854 443.208C294.854 443.208 291.377 449.558 269.305 450.959C266.626 451.129 263.829 451.126 260.973 450.977C270.66 417.534 257.179 372.667 257.627 358.13Z" fill="#4B4B4B"/>
<path d="M268.64 322.511C271.699 321.706 284.073 329.278 290.433 338.919C296.792 348.564 314.861 365.276 317.185 370.104C319.512 374.929 319.932 385.118 315.947 387.681C310.152 391.412 297.865 382.175 291.35 376.575C284.834 370.976 267.398 357.663 261.969 344.752C256.541 331.845 262.128 324.222 268.64 322.511Z" fill="#797979"/>
<path d="M250.353 323.752C250.353 323.752 249.563 310.997 251.461 306.28C253.353 301.559 254.999 300.78 257.136 300.282C258.793 299.895 262.19 300.846 266.027 293.17C269.864 285.494 268.418 282.222 269.066 278.951C269.71 275.684 270.694 273.398 270.141 270.234C269.589 267.069 268.541 255.279 259.288 251.26C250.037 247.238 238.736 247.933 232.556 251.515C226.375 255.097 221.506 263.446 221.553 272.13C221.595 280.815 226.319 286.234 226.391 292.151C226.467 298.068 222.831 305.339 219.301 309.92C215.766 314.503 223.118 320.957 228.142 323.304C239.372 328.547 250.353 323.752 250.353 323.752Z" fill="#FFAF73"/>
<path d="M256.741 292.593C256.235 286.638 256.461 280.715 256.461 280.715L245.755 288.792C245.755 288.792 246.57 310.684 240.31 320.192C239.032 322.13 238.957 323.998 239.629 325.752C245.833 325.72 250.354 323.752 250.354 323.752C250.354 323.752 249.564 310.997 251.461 306.28C253.353 301.56 254.998 300.779 257.135 300.281C257.944 300.091 259.166 300.219 260.645 299.513C258.918 298.05 257.01 295.756 256.741 292.593Z" fill="#CD7A38"/>
<path d="M259.062 321.685C256.431 304.486 250.668 291.979 256.747 285.832L258.17 283.72C258.298 283.693 258.964 286.092 260.894 285.569C261.863 285.305 263.129 280.081 264.265 277.094C264.54 276.376 264.929 275.445 265.373 274.437C265.373 274.437 260.357 279.644 257.747 281.562L257.237 281.01C257.237 281.01 266.256 273.456 269.362 267.28C269.362 267.28 262.942 275.303 258.973 277.553C255.005 279.803 250.283 282.346 252.02 294.092C253.392 303.389 258.852 318.915 258.497 329.387C259.195 326.835 259.451 324.221 259.062 321.685Z" fill="#6C2C3C"/>
<path d="M265.897 252.097C262.291 247.701 256.03 242.838 241.799 244.351C234.938 245.08 229.404 250.362 226.656 254.143C223.579 258.378 220.777 264.451 221.492 276.619C222.209 288.787 221.565 299.078 213.707 306.925C209.331 311.292 207.194 323.662 211.191 331.15C209.833 326.982 209.088 321.301 211.588 315.331C211.637 315.212 211.665 315.146 211.665 315.146C211.637 315.206 211.614 315.268 211.588 315.331C211.096 316.613 208.349 324.651 212.956 333.665C213.77 334.556 214.716 335.316 215.825 335.889C226.128 341.22 239.397 345.202 242.352 344.918C244.674 344.697 247.812 343.09 250.754 340.552C248.984 342.768 247.359 344.14 247.359 344.14C253.528 341.444 256.735 334.367 258.059 330.576C257.312 335.169 255.576 339.017 255.576 339.017C255.576 339.017 259.633 332.418 259.888 327.138C260.145 321.857 257.501 313.235 257.501 313.235V313.239C254.798 300.375 251.714 290.923 256.747 285.83L258.17 283.718C258.298 283.691 258.964 286.091 260.894 285.567C261.863 285.304 263.129 280.081 264.265 277.094C264.539 276.376 264.928 275.445 265.373 274.437C277.475 264.354 265.897 252.097 265.897 252.097Z" fill="#CD7420"/>
<path d="M268.59 268.361C265.962 272.793 261.328 273.886 255.928 279.013C250.525 284.142 250.633 296.402 253.947 307.57C257.257 318.738 256.914 327.844 256.914 327.844C256.486 318.184 252.38 310.085 252.38 310.085C252.38 310.085 256.575 321.818 254.315 329.79C252.054 337.761 244.943 341.462 244.943 341.462C247.624 338.613 249.993 332.916 249.993 332.916C245.593 340.011 240.207 341.736 240.207 341.736C253.729 327.178 249.08 310.256 249.08 310.256C249.746 339.397 231.488 340.512 231.488 340.512L232.965 337.657C231.956 338.751 229.551 340.598 227.901 339.485C226.252 338.373 225.025 334.609 225.025 334.609L224.873 338.643C223.098 337.647 220.882 333.401 220.882 333.401L220.755 336.791C214.836 328.117 219.939 309.985 219.939 309.985C213.868 324.08 217.519 335.132 217.519 335.132C212.848 330.835 213.211 321.156 213.211 321.156C212.094 325.152 212.942 328.255 212.942 328.255C211.985 325.877 210.552 319.604 215.961 310.194C221.371 300.787 222.025 294.677 222.025 294.677C220.736 298.586 219.083 301.35 219.083 301.35C223.271 291.897 221.714 283.359 221.714 283.359C221.702 292.615 220.068 300.571 213.707 306.925C209.331 311.293 207.194 323.662 211.191 331.15C209.833 326.982 209.088 321.303 211.59 315.331C211.637 315.213 211.665 315.146 211.665 315.146C211.637 315.206 211.614 315.269 211.59 315.331C211.096 316.613 208.349 324.652 212.956 333.667C213.77 334.557 214.716 335.315 215.825 335.889C226.128 341.219 239.397 345.202 242.352 344.918C244.674 344.697 247.812 343.09 250.754 340.551C248.984 342.768 247.359 344.138 247.359 344.138C253.528 341.443 256.735 334.368 258.059 330.577C257.312 335.17 255.576 339.018 255.576 339.018C255.576 339.018 259.633 332.418 259.888 327.14C260.145 321.859 257.501 313.236 257.501 313.236V313.24C254.798 300.377 251.714 290.923 256.747 285.83L258.17 283.718C258.298 283.693 258.964 286.092 260.894 285.569C261.863 285.305 263.129 280.081 264.265 277.094C264.539 276.375 264.928 275.446 265.373 274.438L261.526 276.297C266.153 273.089 268.59 268.361 268.59 268.361Z" fill="#B0631D"/>
<path d="M257.855 293.263C257.509 293.819 253.529 294.156 254.195 287.279C254.86 280.404 259.456 278.794 259.344 283.824C259.233 288.851 257.855 293.263 257.855 293.263Z" fill="#FFAF73"/>
<path d="M241.798 244.351C234.937 245.081 229.403 250.364 226.655 254.143C223.578 258.378 220.776 264.452 221.491 276.621C221.633 279.008 221.721 281.321 221.71 283.56C222.398 285.863 222.951 287.782 223.153 288.982C223.954 293.772 221.974 305.021 221.974 305.021C223.317 301.953 224.172 294.438 224.172 294.438C225.155 298.742 222.322 313.129 222.322 313.129C225.248 308.08 227.897 295.88 227.305 278.992C226.713 262.104 237.786 251.418 242.036 248.714C249.473 243.985 257.474 245.871 257.485 245.873C253.727 244.387 248.702 243.617 241.798 244.351Z" fill="#B0631D"/>
<path d="M237.984 260.969C237.987 260.969 237.233 261.629 236.212 263.027C235.193 264.423 233.906 266.581 233.006 269.422C232.555 270.837 232.2 272.418 232.006 274.114C231.795 275.809 231.819 277.615 231.846 279.498C231.906 283.262 232.042 287.297 232.019 291.363C232.015 299.482 231.321 307.559 229.605 313.334C228.777 316.223 227.718 318.501 226.811 319.987C225.909 321.475 225.228 322.202 225.239 322.21C225.228 322.203 225.899 321.435 226.756 319.899C227.617 318.369 228.601 316.045 229.345 313.135C230.106 310.23 230.643 306.763 230.963 303.041C231.287 299.315 231.4 295.33 231.416 291.36C231.438 287.388 231.344 283.4 231.336 279.642C231.338 277.769 231.337 275.934 231.577 274.209C231.801 272.484 232.189 270.879 232.682 269.445C233.655 266.565 235.026 264.397 236.108 263.01C237.198 261.613 237.987 260.969 237.984 260.969Z" fill="#B0631D"/>
<path d="M233.701 329.236C233.692 329.236 235.244 325.839 236.867 320.463C237.665 317.776 238.483 314.59 238.961 311.101C239.192 309.358 239.34 307.538 239.297 305.694C239.238 303.857 239.038 301.949 238.904 300.054C238.284 292.461 237.829 284.915 238.217 279.287C238.397 276.476 238.798 274.154 239.301 272.596C239.794 271.028 240.369 270.267 240.352 270.265C240.365 270.267 239.814 271.066 239.379 272.664C238.93 274.252 238.607 276.599 238.51 279.417C238.288 285.064 238.903 292.565 239.505 300.006C239.641 301.875 239.822 303.724 239.877 305.594C239.908 307.461 239.741 309.291 239.483 311.044C238.958 314.552 238.067 317.748 237.191 320.442C235.411 325.835 233.692 329.236 233.701 329.236Z" fill="#B0631D"/>
<path d="M256.144 252.026C256.162 252.024 253.953 252.002 250.983 253.24C249.505 253.85 247.865 254.774 246.294 256.023C244.717 257.266 243.222 258.828 241.92 260.557C239.297 264.019 237.552 268.005 236.485 271.032C235.411 274.07 234.93 276.158 234.918 276.152C234.93 276.156 235.272 273.997 236.219 270.873C237.157 267.763 238.806 263.663 241.437 260.192C242.74 258.46 244.285 256.893 245.92 255.664C247.555 254.427 249.275 253.539 250.813 252.982C253.91 251.846 256.166 252.024 256.144 252.026Z" fill="#B0631D"/>
<path d="M261.259 258.254C261.261 258.254 260.221 258.564 258.578 259.474C256.94 260.382 254.684 261.918 252.554 264.347C250.411 266.756 248.488 270.098 247.41 274.012C246.866 275.963 246.516 278.039 246.347 280.174C246.168 282.319 246.053 284.504 246.013 286.7C245.912 291.091 246.192 295.455 246.227 299.553C246.278 303.655 245.895 307.473 245.235 310.661C244.584 313.853 243.776 316.433 243.183 318.221C242.583 320.008 242.191 321.007 242.196 321.008C242.191 321.007 242.556 319.975 243.107 318.145C243.655 316.316 244.398 313.685 244.962 310.472C245.541 307.264 245.831 303.469 245.714 299.41C245.615 295.355 245.309 291.02 245.41 286.687C245.449 284.524 245.57 282.357 245.763 280.227C245.943 278.09 246.311 275.989 246.882 274.017C248.002 270.057 250.016 266.664 252.238 264.246C254.455 261.803 256.794 260.293 258.486 259.414C260.19 258.534 261.261 258.255 261.259 258.254Z" fill="#B0631D"/>
<path d="M114.44 353.312L0.773837 419.124L0.00268555 420.31L0.00537571 266.779L0.773837 265.591L114.439 199.784L114.44 353.312Z" fill="#1F1F1F"/>
<path d="M139.555 218.585L29.557 287.781L0.77124 270.134L114.439 204.328L139.555 218.585Z" fill="#D5D1EA"/>
<path d="M27.7292 282.146L26.4615 282.097L0.00538417 266.779L0 420.31L26.4615 435.627L27.7319 435.677L27.7292 282.146ZM13.2321 393.027C9.9456 391.126 7.27415 386.482 7.27415 382.678C7.27415 378.875 9.9456 377.328 13.2321 379.229C16.5172 381.132 19.19 385.773 19.19 389.578C19.19 393.382 16.5172 394.929 13.2321 393.027Z" fill="#1F1F1F"/>
<path d="M141.4 369.869L27.7319 435.678V282.147L141.398 216.34L141.4 369.869Z" fill="#1F1F1F"/>
<path d="M31.4424 433.529L32.0011 433.208L31.9984 279.675L31.4397 279.999L31.4424 433.529Z" fill="#1F1F1F"/>
<path d="M27.7305 282.147L26.4628 282.099L26.4614 435.629L27.7319 435.678L27.7305 282.147Z" fill="#1F1F1F"/>
<path d="M23.0175 363.655C23.0175 365.218 21.9126 365.858 20.5614 365.076L6.20417 356.763C4.85296 355.98 3.74805 354.063 3.74805 352.498L3.75208 280.535C3.75208 278.97 4.85566 278.331 6.20551 279.112L20.5627 287.424C21.9139 288.207 23.0202 290.125 23.0202 291.688L23.0175 363.655Z" fill="black"/>
<path d="M22.7605 363.524C22.7605 365.089 21.6556 365.728 20.3044 364.946L5.94586 356.633C4.596 355.852 3.49243 353.934 3.49243 352.368L3.49378 280.405C3.49378 278.841 4.59869 278.202 5.94855 278.984L20.3071 287.296C21.6556 288.076 22.7619 289.995 22.7619 291.56L22.7605 363.524Z" fill="#FAFAFA"/>
<path d="M13.5416 377.559C11.4018 376.317 9.47997 376.278 8.13818 377.197C9.44901 376.462 11.2457 376.575 13.2308 377.724C17.2386 380.045 20.4888 385.689 20.4888 390.331C20.4888 393.675 18.7984 395.575 16.3531 395.515C19.007 395.771 20.8737 393.825 20.8737 390.292C20.8737 385.604 17.5885 379.905 13.5416 377.559Z" fill="black"/>
<path d="M13.232 379.23C9.9455 377.33 7.27539 378.875 7.27539 382.68C7.27539 386.483 9.9455 391.126 13.232 393.029C16.5171 394.93 19.1899 393.382 19.1899 389.579C19.1899 385.774 16.5171 381.132 13.232 379.23Z" fill="black" fill-opacity="0.3"/>
<path d="M13.2296 377.724C9.2244 375.405 5.97425 377.287 5.9729 381.927C5.9729 386.568 9.2244 392.213 13.2322 394.533C17.2414 396.853 20.4889 394.971 20.4889 390.331C20.4889 385.691 17.2374 380.045 13.2296 377.724ZM13.2322 393.029C9.94576 391.127 7.27431 386.483 7.27431 382.68C7.27431 378.876 9.94576 377.33 13.2322 379.23C16.5174 381.133 19.1902 385.774 19.1902 389.579C19.1902 393.384 16.5174 394.93 13.2322 393.029Z" fill="#D5D1EA"/>
<path d="M20.4913 292.983L5.97534 284.581V282.581L20.4913 290.983V292.983Z" fill="#D5D1EA"/>
<path d="M20.4901 362.978L5.97412 354.576V352.575L20.4901 360.978V362.978Z" fill="#D5D1EA"/>
<path d="M20.1334 301.751L5.97534 293.554V293.256L20.1334 301.45V301.751Z" fill="#D5D1EA"/>
<path d="M20.1334 309.618L5.97534 301.421V301.12L20.132 309.318L20.1334 309.618Z" fill="#D5D1EA"/>
<path d="M20.1307 317.487L5.97534 309.294V308.99L20.1334 317.185L20.1307 317.487Z" fill="#D5D1EA"/>
<path d="M20.1307 325.354L5.97534 317.158V316.857L20.1334 325.052L20.1307 325.354Z" fill="#D5D1EA"/>
<path d="M20.1334 333.223L5.97534 325.025V324.723L20.1334 332.919V333.223Z" fill="#D5D1EA"/>
<path d="M20.1307 341.088L5.97534 332.892V332.591L20.1307 340.786V341.088Z" fill="#D5D1EA"/>
<path d="M20.1307 348.954L5.97534 340.76V340.459L20.1307 348.656V348.954Z" fill="#D5D1EA"/>
<path d="M20.1307 356.821L5.97534 348.629V348.326L20.1307 356.521V356.821Z" fill="#D5D1EA"/>
<path d="M144.701 371.428L31.0347 437.237L30.2622 438.425L30.2662 284.892L31.0334 283.705L144.7 217.898L144.701 371.428Z" fill="#E1A730"/>
<path d="M169.815 236.7L59.8175 305.895L31.0317 288.248L144.7 222.44L169.815 236.7Z" fill="#D5D1EA"/>
<path d="M57.9901 300.259L56.7224 300.212L30.2662 284.891L30.2622 438.425L56.721 453.741L57.9915 453.791L57.9901 300.259ZM43.493 411.141C40.2065 409.239 37.5364 404.595 37.5364 400.792C37.5364 396.988 40.2065 395.442 43.493 397.343C46.7781 399.246 49.4495 403.886 49.4495 407.691C49.4495 411.495 46.7781 413.042 43.493 411.141Z" fill="#E1A730"/>
<path d="M171.661 387.981L57.9927 453.79V300.259L171.659 234.452L171.661 387.981Z" fill="#E5A82B"/>
<path d="M61.7031 451.643L62.2619 451.322L62.2605 297.788L61.7031 298.112V451.643Z" fill="#E5A82B"/>
<path d="M57.9913 300.259L56.7235 300.211L56.7222 453.743L57.9926 453.79L57.9913 300.259Z" fill="#E5A82B"/>
<path d="M53.2796 381.769C53.2796 383.331 52.172 383.971 50.8221 383.191L36.4649 374.876C35.1137 374.093 34.0088 372.177 34.0088 370.611L34.0115 298.648C34.0115 297.084 35.1151 296.445 36.4649 297.225L50.8248 305.539C52.1747 306.32 53.2809 308.238 53.2809 309.801L53.2796 381.769Z" fill="black"/>
<path d="M53.0199 381.638C53.0199 383.203 51.9163 383.842 50.5651 383.059L36.2079 374.747C34.8567 373.965 33.7532 372.047 33.7532 370.482L33.7545 298.518C33.7545 296.954 34.8594 296.316 36.2093 297.097L50.5678 305.409C51.9163 306.19 53.0226 308.109 53.0226 309.673L53.0199 381.638Z" fill="#FAFAFA"/>
<path d="M43.8037 395.672C41.6625 394.432 39.7407 394.392 38.3989 395.311C39.7111 394.575 41.5078 394.689 43.4928 395.838C47.5007 398.16 50.7508 403.803 50.7508 408.445C50.7508 411.788 49.0605 413.69 46.6138 413.628C49.2678 413.886 51.1358 411.938 51.1358 408.405C51.1358 403.718 47.8506 398.018 43.8037 395.672Z" fill="black"/>
<path d="M43.4915 397.343C40.205 395.442 37.5349 396.988 37.5349 400.793C37.5349 404.596 40.205 409.239 43.4915 411.142C46.7767 413.043 49.4494 411.495 49.4494 407.692C49.4494 403.888 46.7767 399.245 43.4915 397.343Z" fill="black" fill-opacity="0.5"/>
<path d="M43.4915 395.838C39.4864 393.518 36.2376 395.4 36.2349 400.041C36.2349 404.681 39.485 410.327 43.4929 412.647C47.5021 414.967 50.7509 413.084 50.7509 408.445C50.7509 403.804 47.5007 398.16 43.4915 395.838ZM43.4929 411.142C40.2064 409.24 37.5363 404.596 37.5363 400.793C37.5363 396.99 40.2064 395.442 43.4929 397.343C46.778 399.246 49.4508 403.888 49.4508 407.692C49.4508 411.497 46.778 413.043 43.4929 411.142Z" fill="#D5D1EA"/>
<path d="M50.7521 311.097L36.2361 302.694V300.694L50.7521 309.097V311.097Z" fill="#D5D1EA"/>
<path d="M50.7509 381.09L36.2349 372.688V370.687L50.7509 379.09V381.09Z" fill="#D5D1EA"/>
<path d="M50.3941 319.864L36.2361 311.668V311.369L50.3941 319.563V319.864Z" fill="#D5D1EA"/>
<path d="M50.3941 327.732L36.2361 319.535V319.235L50.3941 327.431V327.732Z" fill="#D5D1EA"/>
<path d="M50.3929 335.601L36.2375 327.406V327.103L50.3929 335.298V335.601Z" fill="#D5D1EA"/>
<path d="M50.3929 343.468L36.2375 335.27V334.97L50.3929 343.165V343.468Z" fill="#D5D1EA"/>
<path d="M50.3941 351.336L36.2361 343.138V342.836L50.3941 351.032V351.336Z" fill="#D5D1EA"/>
<path d="M50.3929 359.203L36.2375 351.008V350.706L50.3929 358.901V359.203Z" fill="#D5D1EA"/>
<path d="M50.3929 367.068L36.2375 358.872V358.571L50.3929 366.768V367.068Z" fill="#D5D1EA"/>
<path d="M50.3929 374.934L36.2375 366.742V366.44L50.3929 374.633V374.934Z" fill="#D5D1EA"/>
</svg>
